<?xml version="1.0" encoding="UTF-8"?>
<svg version="1.1" xmlns="http://www.w3.org/2000/svg" width="626" height="626">
<path d="M0 0 C206.58 0 413.16 0 626 0 C626 206.58 626 413.16 626 626 C419.42 626 212.84 626 0 626 C0 419.42 0 212.84 0 0 Z " fill="#FDFDFD" transform="translate(0,0)"/>
<path d="M0 0 C2.4139782 1.91834605 4.7534081 3.89370074 7.08203125 5.9140625 C7.88769531 6.5121875 8.69335938 7.1103125 9.5234375 7.7265625 C30.26028768 25.45577792 36.25588958 55.69288392 38.36767578 81.38989258 C39.11168308 91.71890132 39.36728337 102.04356301 39.51171875 112.39648438 C39.78012013 123.55191684 41.22089112 134.3688547 45.58203125 144.7265625 C45.8255835 145.3151001 46.06913574 145.9036377 46.32006836 146.51000977 C48.05750839 150.65743057 49.90265883 154.75645717 51.7421875 158.859375 C66.3188095 191.40253108 66.3188095 191.40253108 65.08203125 205.9140625 C65.76007813 205.93984375 66.438125 205.965625 67.13671875 205.9921875 C73.97703243 206.40904872 80.01168752 207.60410141 86.08203125 210.9140625 C86.41203125 211.5740625 86.74203125 212.2340625 87.08203125 212.9140625 C86.17710937 212.60662109 86.17710937 212.60662109 85.25390625 212.29296875 C84.05507813 211.88884766 84.05507813 211.88884766 82.83203125 211.4765625 C82.043125 211.20972656 81.25421875 210.94289063 80.44140625 210.66796875 C66.62338022 206.25260613 50.71555454 208.03783466 37.91796875 214.515625 C36.00326922 215.55955678 34.10357438 216.63191986 32.2265625 217.7421875 C30.08203125 218.9140625 30.08203125 218.9140625 28.08203125 218.9140625 C28.08203125 219.5740625 28.08203125 220.2340625 28.08203125 220.9140625 C27.52153076 221.20394043 26.96103027 221.49381836 26.38354492 221.79248047 C20.88332315 224.72801484 16.14773953 228.02205359 11.39453125 232.0390625 C10.01234884 233.18175216 8.62952284 234.32366374 7.24609375 235.46484375 C6.55676758 236.0367041 5.86744141 236.60856445 5.15722656 237.19775391 C1.88501575 239.90406473 -1.41286772 242.57616644 -4.73046875 245.2265625 C-5.31078857 245.7004541 -5.8911084 246.1743457 -6.48901367 246.66259766 C-10.57376544 249.9140625 -10.57376544 249.9140625 -13.91796875 249.9140625 C-13.42466064 249.49648682 -12.93135254 249.07891113 -12.4230957 248.64868164 C-9.8856855 245.72438326 -10.89147738 242.0194246 -11.10546875 238.3515625 C-11.46761841 227.28794212 -9.04884304 217.24465871 -6.328125 206.58203125 C-4.30020472 198.58804193 -3.76024174 191.12854229 -3.79296875 182.9140625 C-3.78910156 181.97433594 -3.78523438 181.03460938 -3.78125 180.06640625 C-3.78855281 174.64042041 -4.00597282 169.27111088 -4.40234375 163.859375 C-5.03981783 154.83825538 -5.24210689 145.83131744 -5.29296875 136.7890625 C-5.29886017 135.93332642 -5.30475159 135.07759033 -5.31082153 134.19592285 C-5.35165416 123.23639496 -5.03055086 112.89575727 -1.60888672 102.36669922 C0.34138468 96.31578689 -0.00899811 91.17990982 -0.91796875 84.9140625 C-1.20462402 86.32715698 -1.20462402 86.32715698 -1.49707031 87.76879883 C-2.21924454 91.31727853 -2.95254973 94.86338639 -3.68896484 98.40893555 C-4.00410441 99.93371636 -4.31636014 101.45909652 -4.62548828 102.98510742 C-6.43595467 111.91146842 -8.4302079 120.45704448 -11.91796875 128.9140625 C-12.57796875 128.9140625 -13.23796875 128.9140625 -13.91796875 128.9140625 C-14.10359375 129.6153125 -14.28921875 130.3165625 -14.48046875 131.0390625 C-17.97227813 138.02268125 -24.8403961 141.35874384 -31.91796875 143.9140625 C-36.57067602 145.17214451 -41.26294761 146.1809321 -45.98046875 147.1640625 C-47.22763672 147.4321875 -48.47480469 147.7003125 -49.75976562 147.9765625 C-52.81074368 148.63117848 -55.86333538 149.27676259 -58.91796875 149.9140625 C-58.64082031 151.13222656 -58.36367188 152.35039062 -58.078125 153.60546875 C-57.71209633 155.22913438 -57.34621895 156.85283412 -56.98046875 158.4765625 C-56.70686523 159.67635742 -56.70686523 159.67635742 -56.42773438 160.90039062 C-56.0714721 162.48737712 -55.72580671 164.07678205 -55.39111328 165.66845703 C-54.96689239 167.68186454 -54.50536833 169.6873274 -54.0390625 171.69140625 C-53.91796875 174.9140625 -53.91796875 174.9140625 -55.4375 177.56640625 C-58.28311924 180.25966162 -61.30646603 182.3944581 -64.60546875 184.4765625 C-65.95038427 185.35237947 -67.2940873 186.23006054 -68.63671875 187.109375 C-69.33667969 187.56602539 -70.03664063 188.02267578 -70.7578125 188.49316406 C-94.22924564 203.27703708 -94.22924564 203.27703708 -108.91796875 225.9140625 C-109.45259014 229.32227386 -109.5368923 231.78463996 -107.84765625 234.8671875 C-96.68113132 249.11993792 -74.1256243 255.52589722 -56.91796875 257.9140625 C-44.51888517 258.82058267 -32.04133092 258.86013322 -19.91796875 255.9140625 C-23.44106742 260.09262139 -27.04306725 264.05240495 -30.91796875 267.9140625 C-32.66235018 269.68010912 -34.40579944 271.44707684 -36.1484375 273.21484375 C-37.62643032 274.70754949 -39.10536239 276.19931752 -40.5847168 277.69067383 C-41.60568757 278.72180677 -42.62487171 279.75471156 -43.64233398 280.78930664 C-45.11889241 282.28999725 -46.60170734 283.78424535 -48.0859375 285.27734375 C-48.96531982 286.16719971 -49.84470215 287.05705566 -50.75073242 287.97387695 C-52.91796875 289.9140625 -52.91796875 289.9140625 -54.91796875 289.9140625 C-53.83565397 287.38866134 -52.84941251 285.84758372 -50.85546875 283.9140625 C-48.77730378 282.13346786 -48.77730378 282.13346786 -48.54296875 279.9765625 C-47.49155138 276.50688516 -44.74225601 275.0184334 -41.91796875 272.9140625 C-40.5996058 272.21825983 -39.27005789 271.54181817 -37.91796875 270.9140625 C-37.25796875 270.2540625 -36.59796875 269.5940625 -35.91796875 268.9140625 C-37.15289062 268.87667969 -38.3878125 268.83929688 -39.66015625 268.80078125 C-60.48350528 268.04665738 -80.78720736 265.1757884 -99.66796875 255.9140625 C-100.32361816 255.5941333 -100.97926758 255.2742041 -101.65478516 254.94458008 C-109.41077661 250.93512687 -114.29549031 244.76276578 -117.91796875 236.9140625 C-118.90796875 238.5640625 -119.89796875 240.2140625 -120.91796875 241.9140625 C-121.24796875 241.2540625 -121.57796875 240.5940625 -121.91796875 239.9140625 C-120.55130189 237.49497323 -119.14454551 235.21920604 -117.60546875 232.9140625 C-117.18845703 232.27210938 -116.77144531 231.63015625 -116.34179688 230.96875 C-114.67130044 228.42170918 -113.07725546 226.07334921 -110.91796875 223.9140625 C-110.63552123 221.26429707 -110.45186358 218.69579818 -110.35546875 216.0390625 C-110.18082606 211.88479603 -109.97336316 207.94891651 -108.91796875 203.9140625 C-108.40648501 198.5908428 -108.15402256 193.2553586 -107.91796875 187.9140625 C-107.88251953 187.18832031 -107.84707031 186.46257812 -107.81054688 185.71484375 C-107.18516954 171.4970815 -110.13992485 160.69091899 -117.04907227 148.23803711 C-124.862927 134.1154781 -125.3012648 119.95298713 -122.05566406 104.30322266 C-120.4389065 95.69636622 -120.46209434 86.97648204 -120.38500977 78.24194336 C-120.20446478 67.53468294 -117.84395615 59.23676974 -113.10546875 49.7265625 C-110.44587594 44.25816685 -108.01963839 38.78352099 -105.85546875 33.1015625 C-98.07706477 13.39488218 -85.11209261 -0.80808826 -65.859375 -9.83203125 C-43.78705287 -19.24134786 -19.11573972 -13.66506695 0 0 Z " fill="#F4F4F4" transform="translate(353.91796875,72.0859375)"/>
<path d="M0 0 C0.95640381 0.30599121 0.95640381 0.30599121 1.93212891 0.61816406 C10.422462 3.38846035 18.75531693 6.26961936 25 13 C25 13.66 25 14.32 25 15 C25.70125 15.2475 26.4025 15.495 27.125 15.75 C30 17 30 17 32.75146484 19.01977539 C36.37499235 21.22858582 38.65566586 21.59952188 42.8515625 21.93359375 C51.43659453 22.82412537 59.24018049 25.26842983 67.375 28.0625 C68.09379333 28.30477325 68.81258667 28.54704651 69.55316162 28.79666138 C81.32948239 32.77855336 92.09443815 37.54388282 102.71191406 44.04882812 C106.83554546 46.50320616 110.90676137 48.15402482 115.5 49.625 C117.37171875 50.23214844 117.37171875 50.23214844 119.28125 50.8515625 C122.84278798 51.95144923 126.4117001 52.99194668 130 54 C129.69381595 57.67420866 129.24228216 58.78135513 126.4375 61.3125 C125.633125 61.869375 124.82875 62.42625 124 63 C124.99 63.78375 125.98 64.5675 127 65.375 C127.99 66.24125 128.98 67.1075 130 68 C130 68.66 130 69.32 130 70 C130.55558594 70.23074219 131.11117187 70.46148437 131.68359375 70.69921875 C134.62668155 72.35191392 136.68443518 74.42008788 139.0625 76.8125 C139.91972656 77.66457031 140.77695312 78.51664062 141.66015625 79.39453125 C143.85229633 81.83552864 145.51745932 84.0792471 147 87 C146.75495152 89.20543633 146.57580336 90.42419664 145 92 C139.25481986 91.70493712 135.488436 89.80773791 130.89453125 86.5625 C130.24804123 86.12236572 129.60155121 85.68223145 128.93547058 85.22875977 C126.88599666 83.83109062 124.8487662 82.41682655 122.8125 81 C120.76396906 79.58569289 118.71302549 78.17520878 116.65739441 76.77124023 C115.38294728 75.89971977 114.1127967 75.02187375 112.84761047 74.13696289 C109.97087582 72.15958235 107.50264743 70.49334586 104 70 C104.5053125 70.55429687 105.010625 71.10859375 105.53125 71.6796875 C106.1809375 72.40414062 106.830625 73.12859375 107.5 73.875 C108.1496875 74.59429687 108.799375 75.31359375 109.46875 76.0546875 C111 78 111 78 111 80 C111.66 80 112.32 80 113 80 C113 80.66 113 81.32 113 82 C113.66 82 114.32 82 115 82 C115 82.66 115 83.32 115 84 C115.66 84 116.32 84 117 84 C117 84.66 117 85.32 117 86 C117.66 86 118.32 86 119 86 C119 86.66 119 87.32 119 88 C119.66 88 120.32 88 121 88 C121 88.66 121 89.32 121 90 C121.66 90 122.32 90 123 90 C123 90.66 123 91.32 123 92 C123.66 92 124.32 92 125 92 C125 92.66 125 93.32 125 94 C125.66 94 126.32 94 127 94 C128.55078125 95.57421875 128.55078125 95.57421875 130.3125 97.6875 C132.43655718 100.21232269 134.54086947 102.55262566 137 104.75 C139 107 139 107 138.9375 109.25 C138 111 138 111 136 112 C129.46666667 112.23333333 129.46666667 112.23333333 127 111 C126.814375 111.9590625 126.814375 111.9590625 126.625 112.9375 C126.41875 113.618125 126.2125 114.29875 126 115 C122.305087 116.8474565 117.61833064 116.35426143 113.64453125 115.484375 C110.52230333 114.9125046 107.67114575 115.01590095 104.5 115.125 C96.24888073 115.18566999 88.04624303 114.25655861 80.75 110.1875 C76.5231444 108.3622669 73.29660614 109.78437485 69 111 C62.01062096 112.67934319 55.29201242 113.28556067 48.1015625 113.4609375 C44.42467172 114.09999408 43.1957894 115.02540844 41 118 C41 118.99 41 119.98 41 121 C40.05125 121.598125 39.1025 122.19625 38.125 122.8125 C34.36495325 125.44453272 33.90342814 126.56498912 33 131 C32.73105654 133.60915298 32.5024331 136.2098538 32.34375 138.828125 C32 141 32 141 30 143 C28.0625 142.9375 28.0625 142.9375 26 142 C22.60229369 138.09892979 22.61520256 134.1560073 22.50390625 129.20703125 C22.33761719 128.47871094 22.17132813 127.75039063 22 127 C20.08328492 125.80726037 20.08328492 125.80726037 18 125 C17.525625 124.195625 17.05125 123.39125 16.5625 122.5625 C15.20431528 119.86853501 15.20431528 119.86853501 12.6875 118.6875 C8.34575298 115.96128675 5.28598393 111.57196786 3 107 C2.38220245 98.17842568 2.26970035 87.77802438 6.75 79.9375 C9.32465121 77.72043923 11.88799367 76.34382091 15 75 C14.01386719 75.10828125 14.01386719 75.10828125 13.0078125 75.21875 C3.66091434 76.1306425 -5.62111639 76.09378884 -15 76 C-15 75.67 -15 75.34 -15 75 C-13.93523437 74.96261719 -12.87046875 74.92523438 -11.7734375 74.88671875 C8.96966147 74.61905439 8.96966147 74.61905439 27 67 C25.906875 66.319375 24.81375 65.63875 23.6875 64.9375 C19.96094401 62.21424755 17.89853332 59.57361555 17 55 C16.30837633 47.54799847 16.84783561 40.98598353 19.34375 33.92578125 C20.10751888 32.02357101 20.10751888 32.02357101 20 30 C16.45171535 31.41931386 15.64620716 32.65770062 14 36 C13.13375 36.9075 12.2675 37.815 11.375 38.75 C6.21352968 44.53749024 3.28643677 52.05177201 0 59 C-0.66 59 -1.32 59 -2 59 C-4.40773175 54.18453649 -3.56201229 47.44135276 -2.38671875 42.3359375 C0.6758696 33.83624295 6.6215267 27.23609667 13 21 C10.69 21.33 8.38 21.66 6 22 C6 22.66 6 23.32 6 24 C4.989375 24.495 3.97875 24.99 2.9375 25.5 C-5.06322465 30.17512224 -9.12878936 37.53518812 -13.07202148 45.63208008 C-15.15613402 49.81824821 -17.38972413 52.90463233 -21 56 C-21.66 56 -22.32 56 -23 56 C-22.51411697 50.02297313 -21.28001564 45.45666887 -18.5625 40.125 C-18.20978027 39.43100098 -17.85706055 38.73700195 -17.49365234 38.02197266 C-12.18975582 28.09937199 -4.17962495 20.81574565 6 16 C6.66 16 7.32 16 8 16 C8 15.34 8 14.68 8 14 C-7.80626153 13.52102238 -19.9326705 22.06685644 -31.20703125 32.265625 C-33.96091892 34.82133849 -33.96091892 34.82133849 -35.76171875 37.359375 C-36.17035156 37.90078125 -36.57898438 38.4421875 -37 39 C-37.66 39 -38.32 39 -39 39 C-39.2475 39.5775 -39.495 40.155 -39.75 40.75 C-41.16727257 43.30109062 -42.91182287 44.97973107 -45 47 C-43.67801767 33.9397263 -38.60510022 23.99386657 -29 15 C-24.51048926 11.43391705 -20.73121135 8.883269 -15 8 C-15 7.01 -15 6.02 -15 5 C-21.84976496 5.16031365 -26.86757572 6.52880585 -32.87109375 9.84375 C-35 11 -35 11 -38 12 C-38.69800304 13.31719929 -39.36059748 14.65337955 -40 16 C-41.65625 17.921875 -41.65625 17.921875 -43.5 19.75 C-44.1084375 20.36359375 -44.716875 20.9771875 -45.34375 21.609375 C-47 23 -47 23 -49 23 C-52.44219197 29.7887675 -55.82666636 36.68969594 -58 44 C-58.33 44 -58.66 44 -59 44 C-60.63358086 32.56493397 -53.34509397 22.07626251 -47.0625 13 C-34.24331921 -3.65740909 -19.89800436 -6.44685647 0 0 Z " fill="#F4F4F4" transform="translate(199,425)"/>
<path d="M0 0 C0.33 0.66 0.66 1.32 1 2 C2.32 1.67 3.64 1.34 5 1 C4.00414666 3.90457226 3.01591856 5.98048692 1.0625 8.375 C-1.37307651 11.47482465 -2.56534472 14.34162905 -4 18 C-3.401875 17.505 -2.80375 17.01 -2.1875 16.5 C0 15 0 15 3 15 C2.86722656 15.59167969 2.73445313 16.18335937 2.59765625 16.79296875 C2.42105469 17.58316406 2.24445313 18.37335938 2.0625 19.1875 C1.80146484 20.35345703 1.80146484 20.35345703 1.53515625 21.54296875 C1.35855469 22.35378906 1.18195313 23.16460937 1 24 C0.82597656 24.74830078 0.65195312 25.49660156 0.47265625 26.26757812 C-0.0502142 29.29028789 -0.11276539 32.10862517 -0.09765625 35.17578125 C-0.09282227 36.91118164 -0.09282227 36.91118164 -0.08789062 38.68164062 C-0.07951172 39.87982422 -0.07113281 41.07800781 -0.0625 42.3125 C-0.05798828 43.53001953 -0.05347656 44.74753906 -0.04882812 46.00195312 C-0.03706578 49.00135226 -0.02062826 52.00065089 0 55 C0.78375 54.195625 1.5675 53.39125 2.375 52.5625 C5.9013187 49.12014127 7.50329658 48.82809261 12.3125 48.75 C16.72929142 48.80766046 19.61357093 48.92142812 23 52 C25.3125 55.1875 25.3125 55.1875 27 58 C26.505 58.99 26.505 58.99 26 60 C25.54625 59.505 25.0925 59.01 24.625 58.5 C23.12364481 56.77390663 23.12364481 56.77390663 21 57 C20.34 58.65 19.68 60.3 19 62 C17.35 62 15.7 62 14 62 C13.505 60.02 13.505 60.02 13 58 C11.35 58.66 9.7 59.32 8 60 C8 60.99 8 61.98 8 63 C2.125 62.125 2.125 62.125 1 61 C-1.51366423 81.00795644 -1.54526893 100.87903643 11.0390625 117.73046875 C17.44152775 125.20755272 25.42949916 132.1107922 35 135 C41.14846894 134.42582391 47.12038749 132.89921064 53.125 131.5 C55.06497515 131.0515249 57.00507525 130.60358983 58.9453125 130.15625 C59.79625488 129.95837891 60.64719727 129.76050781 61.52392578 129.55664062 C64.00905649 128.99796403 66.50041336 128.48952334 69 128 C65.89453031 130.64681712 63.2751246 131.6576748 59.31640625 132.5703125 C57.67768555 132.95509766 57.67768555 132.95509766 56.00585938 133.34765625 C54.30139648 133.73244141 54.30139648 133.73244141 52.5625 134.125 C51.43005859 134.38925781 50.29761719 134.65351563 49.13085938 134.92578125 C44.43214712 136.01670207 39.73398941 137.07278507 35 138 C35.27714844 139.21816406 35.55429687 140.43632812 35.83984375 141.69140625 C36.20587242 143.31507188 36.5717498 144.93877162 36.9375 146.5625 C37.21110352 147.76229492 37.21110352 147.76229492 37.49023438 148.98632812 C37.84649665 150.57331462 38.19216204 152.16271955 38.52685547 153.75439453 C38.95107636 155.76780204 39.41260042 157.7732649 39.87890625 159.77734375 C40 163 40 163 38.48046875 165.65234375 C35.63484951 168.34559912 32.61150272 170.4803956 29.3125 172.5625 C27.96758448 173.43831697 26.62388145 174.31599804 25.28125 175.1953125 C24.58128906 175.65196289 23.88132812 176.10861328 23.16015625 176.57910156 C-0.31127689 191.36297458 -0.31127689 191.36297458 -15 214 C-15.53462139 217.40821136 -15.61892355 219.87057746 -13.9296875 222.953125 C-2.76316257 237.20587542 19.79234445 243.61183472 37 246 C49.39908358 246.90652017 61.87663783 246.94607072 74 244 C70.47690133 248.17855889 66.8749015 252.13834245 63 256 C61.25561857 257.76604662 59.51216931 259.53301434 57.76953125 261.30078125 C56.29153843 262.79348699 54.81260636 264.28525502 53.33325195 265.77661133 C52.31228118 266.80774427 51.29309704 267.84064906 50.27563477 268.87524414 C48.79907634 270.37593475 47.31626141 271.87018285 45.83203125 273.36328125 C44.95264893 274.25313721 44.0732666 275.14299316 43.16723633 276.05981445 C41 278 41 278 39 278 C40.08231478 275.47459884 41.06855624 273.93352122 43.0625 272 C45.14066497 270.21940536 45.14066497 270.21940536 45.375 268.0625 C46.42641737 264.59282266 49.17571274 263.1043709 52 261 C53.31836295 260.30419733 54.64791086 259.62775567 56 259 C56.66 258.34 57.32 257.68 58 257 C56.76507813 256.96261719 55.53015625 256.92523438 54.2578125 256.88671875 C33.43446347 256.13259488 13.13076139 253.2617259 -5.75 244 C-6.40564941 243.6800708 -7.06129883 243.3601416 -7.73681641 243.03051758 C-15.49280786 239.02106437 -20.37752156 232.84870328 -24 225 C-24.99 226.65 -25.98 228.3 -27 230 C-27.33 229.34 -27.66 228.68 -28 228 C-26.63333314 225.58091073 -25.22657676 223.30514354 -23.6875 221 C-23.27048828 220.35804688 -22.85347656 219.71609375 -22.42382812 219.0546875 C-20.75333169 216.50764668 -19.15928671 214.15928671 -17 212 C-16.71755248 209.35023457 -16.53389483 206.78173568 -16.4375 204.125 C-16.26285731 199.97073353 -16.05539441 196.03485401 -15 192 C-14.48851626 186.6767803 -14.23605381 181.3412961 -14 176 C-13.96455078 175.27425781 -13.92910156 174.54851562 -13.89257812 173.80078125 C-13.26720079 159.583019 -16.2219561 148.77685649 -23.13110352 136.32397461 C-30.94495825 122.2014156 -31.38329605 108.03892463 -28.13769531 92.38916016 C-26.52093775 83.78230372 -26.54412559 75.06241954 -26.46704102 66.32788086 C-26.28649603 55.62062044 -23.9259874 47.32270724 -19.1875 37.8125 C-16.52804049 32.34437841 -14.09868101 26.87046898 -11.9375 21.1875 C-9.05387621 13.79278255 -5.69246812 5.69246812 0 0 Z " fill="#EDEDED" transform="translate(260,84)"/>
<path d="M0 0 C0.95640381 0.30599121 0.95640381 0.30599121 1.93212891 0.61816406 C10.422462 3.38846035 18.75531693 6.26961936 25 13 C25 13.66 25 14.32 25 15 C25.70125 15.2475 26.4025 15.495 27.125 15.75 C30 17 30 17 32.72265625 19.01171875 C36.44861118 21.27216101 38.99949803 21.67285185 43.3125 22.0625 C49.30603196 22.71859669 54.38710179 23.83361824 60 26 C56.49646096 27.22704593 54.57697307 26.71710905 51.125 25.5 C43.8335656 23.36353132 35.12071264 22.84374557 28.23046875 26.44921875 C26.11440135 27.92046001 24.03441525 29.41767703 22 31 C21.67 30.34 21.34 29.68 21 29 C20.54625 29.495 20.0925 29.99 19.625 30.5 C18 32 18 32 16 32 C15.72414063 32.60328125 15.44828125 33.2065625 15.1640625 33.828125 C14 36 14 36 11.375 38.75 C6.21352968 44.53749024 3.28643677 52.05177201 0 59 C-0.66 59 -1.32 59 -2 59 C-4.40773175 54.18453649 -3.56201229 47.44135276 -2.38671875 42.3359375 C0.6758696 33.83624295 6.6215267 27.23609667 13 21 C10.69 21.33 8.38 21.66 6 22 C6 22.66 6 23.32 6 24 C4.989375 24.495 3.97875 24.99 2.9375 25.5 C-5.06322465 30.17512224 -9.12878936 37.53518812 -13.07202148 45.63208008 C-15.15613402 49.81824821 -17.38972413 52.90463233 -21 56 C-21.66 56 -22.32 56 -23 56 C-22.51411697 50.02297313 -21.28001564 45.45666887 -18.5625 40.125 C-18.20978027 39.43100098 -17.85706055 38.73700195 -17.49365234 38.02197266 C-12.18975582 28.09937199 -4.17962495 20.81574565 6 16 C6.66 16 7.32 16 8 16 C8 15.34 8 14.68 8 14 C-7.80626153 13.52102238 -19.9326705 22.06685644 -31.20703125 32.265625 C-33.96091892 34.82133849 -33.96091892 34.82133849 -35.76171875 37.359375 C-36.17035156 37.90078125 -36.57898438 38.4421875 -37 39 C-37.66 39 -38.32 39 -39 39 C-39.2475 39.5775 -39.495 40.155 -39.75 40.75 C-41.16727257 43.30109062 -42.91182287 44.97973107 -45 47 C-43.67801767 33.9397263 -38.60510022 23.99386657 -29 15 C-24.51048926 11.43391705 -20.73121135 8.883269 -15 8 C-15 7.01 -15 6.02 -15 5 C-21.84976496 5.16031365 -26.86757572 6.52880585 -32.87109375 9.84375 C-35 11 -35 11 -38 12 C-38.69800304 13.31719929 -39.36059748 14.65337955 -40 16 C-41.65625 17.921875 -41.65625 17.921875 -43.5 19.75 C-44.1084375 20.36359375 -44.716875 20.9771875 -45.34375 21.609375 C-47 23 -47 23 -49 23 C-52.44219197 29.7887675 -55.82666636 36.68969594 -58 44 C-58.33 44 -58.66 44 -59 44 C-60.63358086 32.56493397 -53.34509397 22.07626251 -47.0625 13 C-34.24331921 -3.65740909 -19.89800436 -6.44685647 0 0 Z " fill="#DEDEDE" transform="translate(199,425)"/>
<path d="M0 0 C4.45352389 5.2632555 5.25344541 10.51029121 5.265625 17.26953125 C5.26753845 17.94996994 5.2694519 18.63040863 5.27142334 19.33146667 C5.2727774 20.76435722 5.26913568 22.19726035 5.26074219 23.63012695 C5.2500811 25.79602404 5.26063772 27.96108235 5.2734375 30.12695312 C5.27978781 37.35740636 4.83395322 43.96743923 3 51 C2.76432107 53.74063235 2.76432107 53.74063235 2.875 56.0625 C2.91625 57.361875 2.9575 58.66125 3 60 C3.99 59.505 3.99 59.505 5 59 C4.7834375 59.56847656 4.566875 60.13695312 4.34375 60.72265625 C1.82356243 67.69390488 1.82356243 67.69390488 2 75 C8.61879371 86.8466815 25.31205921 92.72120358 37.62109375 96.484375 C54.88071495 101.22213476 73.51615729 102.24870893 91 98 C87.47690133 102.17855889 83.8749015 106.13834245 80 110 C78.25561857 111.76604662 76.51216931 113.53301434 74.76953125 115.30078125 C73.29153843 116.79348699 71.81260636 118.28525502 70.33325195 119.77661133 C69.31228118 120.80774427 68.29309704 121.84064906 67.27563477 122.87524414 C65.79907634 124.37593475 64.31626141 125.87018285 62.83203125 127.36328125 C61.51295776 128.69806519 61.51295776 128.69806519 60.16723633 130.05981445 C58 132 58 132 56 132 C57.08231478 129.47459884 58.06855624 127.93352122 60.0625 126 C62.14066497 124.21940536 62.14066497 124.21940536 62.375 122.0625 C63.42641737 118.59282266 66.17571274 117.1043709 69 115 C70.31836295 114.30419733 71.64791086 113.62775567 73 113 C73.66 112.34 74.32 111.68 75 111 C73.14761719 110.94392578 73.14761719 110.94392578 71.2578125 110.88671875 C50.43446347 110.13259488 30.13076139 107.2617259 11.25 98 C10.26652588 97.5201062 10.26652588 97.5201062 9.26318359 97.03051758 C1.50719214 93.02106437 -3.37752156 86.84870328 -7 79 C-7.99 80.65 -8.98 82.3 -10 84 C-10.33 83.34 -10.66 82.68 -11 82 C-9.63333314 79.58091073 -8.22657676 77.30514354 -6.6875 75 C-6.27048828 74.35804688 -5.85347656 73.71609375 -5.42382812 73.0546875 C-3.75333169 70.50764668 -2.15928671 68.15928671 0 66 C0.28244752 63.35023457 0.46610517 60.78173568 0.5625 58.125 C0.73714269 53.97073353 0.94460559 50.03485401 2 46 C4.30898101 25.1483746 4.30898101 25.1483746 0.65625 4.8828125 C0 3 0 3 0 0 Z " fill="#DFDFDF" transform="translate(243,230)"/>
<path d="M0 0 C0.66 0.33 1.32 0.66 2 1 C1.98839844 2.07121094 1.97679687 3.14242187 1.96484375 4.24609375 C1.95546701 5.64322743 1.94636669 7.04036299 1.9375 8.4375 C1.92493164 9.49807617 1.92493164 9.49807617 1.91210938 10.58007812 C1.90346412 12.38693559 1.94779989 14.19387603 2 16 C3.87750781 17.87750781 7.24113921 17.22289783 9.75 17.3125 C24.32274246 18.11754687 36.10103163 23.11113479 46 34 C45.505 34.99 45.505 34.99 45 36 C44.4423999 35.80365967 43.8847998 35.60731934 43.31030273 35.4050293 C20.91258547 27.5756064 -1.54624216 21.61456136 -25 29 C-25.91910156 29.28617188 -26.83820313 29.57234375 -27.78515625 29.8671875 C-29.86838054 30.54334994 -31.93659755 31.26556862 -34 32 C-31.85998358 27.06230357 -28.75498035 25.29147389 -24 23 C-20.11778317 21.51183433 -16.16292028 20.25394882 -12.1953125 19.015625 C-9.14464277 18.13701592 -9.14464277 18.13701592 -7 17 C-6.23195349 14.62425597 -6.23195349 14.62425597 -5.625 11.8125 C-4.42220981 7.07535708 -3.00084934 3.82866984 0 0 Z " fill="#DDDDDD" transform="translate(297,67)"/>
<path d="M0 0 C3.41906925 4.31100036 4.12273297 7.42752472 4.24609375 12.8828125 C4.27896484 14.05070312 4.31183594 15.21859375 4.34570312 16.421875 C4.40631806 18.86710738 4.46367438 21.31242297 4.51757812 23.7578125 C4.84490017 35.95206949 4.84490017 35.95206949 9.0625 47.25 C12.58346925 53.92544356 13.3308267 61.57197663 11.140625 68.859375 C10.41534949 70.84599921 9.68743753 72.83166269 8.95703125 74.81640625 C7.36332285 80.11792602 7.17764607 85.49297192 7 91 C6.34 90.67 5.68 90.34 5 90 C5 87.69 5 85.38 5 83 C4.34 83 3.68 83 3 83 C2.89955022 87.17677912 2.82780601 91.35287985 2.78027344 95.53051758 C2.76041606 96.945356 2.73332034 98.36011531 2.69824219 99.7746582 C2.48653107 108.54510243 3.1307437 116.08968408 6.23144531 124.43676758 C7 127 7 127 6 130 C5.34371151 128.79731319 4.70052495 127.58747446 4.0625 126.375 C3.70285156 125.70210938 3.34320313 125.02921875 2.97265625 124.3359375 C0.62177555 118.6900473 0.84070348 112.66094323 0.7890625 106.6484375 C0.76097805 104.8085851 0.73231349 102.96874147 0.703125 101.12890625 C0.66206752 98.25928143 0.62513685 95.38981767 0.59863281 92.52001953 C0.52764221 78.25051725 0.52764221 78.25051725 -2.33520508 64.32519531 C-3.85647864 59.00436925 -3.27240732 53.94125945 -2.0625 48.625 C-0.25641797 40.58088995 -0.3202779 32.20922838 0 24 C0.33 24 0.66 24 1 24 C1.33 27.63 1.66 31.26 2 35 C2.05427506 30.85398823 2.09380883 26.70869729 2.125 22.5625 C2.14175781 21.39783203 2.15851563 20.23316406 2.17578125 19.03320312 C2.21345755 12.34566067 1.75480996 6.45963509 0 0 Z " fill="#E4E4E4" transform="translate(369,102)"/>
<path d="M0 0 C-0.13277344 0.59167969 -0.26554687 1.18335937 -0.40234375 1.79296875 C-0.57894531 2.58316406 -0.75554687 3.37335938 -0.9375 4.1875 C-1.11152344 4.96480469 -1.28554688 5.74210937 -1.46484375 6.54296875 C-1.72974609 7.75919922 -1.72974609 7.75919922 -2 9 C-2.17402344 9.74830078 -2.34804688 10.49660156 -2.52734375 11.26757812 C-3.0502142 14.29028789 -3.11276539 17.10862517 -3.09765625 20.17578125 C-3.09443359 21.33271484 -3.09121094 22.48964844 -3.08789062 23.68164062 C-3.07951172 24.87982422 -3.07113281 26.07800781 -3.0625 27.3125 C-3.05798828 28.53001953 -3.05347656 29.74753906 -3.04882812 31.00195312 C-3.03706578 34.00135226 -3.02062826 37.00065089 -3 40 C-1.824375 38.7934375 -1.824375 38.7934375 -0.625 37.5625 C2.9013187 34.12014127 4.50329658 33.82809261 9.3125 33.75 C13.72929142 33.80766046 16.61357093 33.92142812 20 37 C22.3125 40.1875 22.3125 40.1875 24 43 C23.67 43.66 23.34 44.32 23 45 C22.54625 44.505 22.0925 44.01 21.625 43.5 C20.12364481 41.77390663 20.12364481 41.77390663 18 42 C17.01 44.475 17.01 44.475 16 47 C14.35 47 12.7 47 11 47 C10.67 45.68 10.34 44.36 10 43 C8.35 43.66 6.7 44.32 5 45 C5 45.99 5 46.98 5 48 C-0.875 47.125 -0.875 47.125 -2 46 C-3.77602633 60.13659668 -4.34803625 74.30255937 0 88 C0.35329195 89.66255036 0.69253895 91.32836709 1 93 C-9.71243241 80.37771806 -6.31332449 59.46541515 -5.86938477 44.09039307 C-5.79317725 41.28993032 -5.7364354 38.48922436 -5.6805315 35.68829346 C-5.20570496 12.06217633 -5.20570496 12.06217633 -4 4 C-4.99 3.67 -5.98 3.34 -7 3 C-3.375 0 -3.375 0 0 0 Z " fill="#D1D1D1" transform="translate(263,99)"/>
<path d="M0 0 C3.0864347 1.99475131 3.58259859 2.54795442 4.75 6.1875 C4.729375 7.074375 4.70875 7.96125 4.6875 8.875 C0.1281257 11.06349966 -3.15044005 12.44856222 -8.3125 11.875 C-10.6875 10.875 -10.6875 10.875 -12.3125 9.875 C-12.6425 11.195 -12.9725 12.515 -13.3125 13.875 C-16.25 13.5 -16.25 13.5 -19.3125 12.875 C-19.6425 12.215 -19.9725 11.555 -20.3125 10.875 C-22.2925 10.875 -24.2725 10.875 -26.3125 10.875 C-25.9825 10.215 -25.6525 9.555 -25.3125 8.875 C-22.37109375 8.2421875 -22.37109375 8.2421875 -18.75 7.75 C-17.55246094 7.58242187 -16.35492188 7.41484375 -15.12109375 7.2421875 C-13.73083984 7.06042969 -13.73083984 7.06042969 -12.3125 6.875 C-15.44106476 5.31071762 -17.83962131 5.59492914 -21.3125 5.875 C-23.51287195 6.78290122 -25.54249017 7.82831467 -27.61328125 9 C-29.3125 9.875 -29.3125 9.875 -31.3125 9.875 C-30.06999216 4.90496862 -28.6122891 2.67486267 -24.3125 -0.125 C-16.89270282 -3.69940664 -7.37443772 -3.68130037 0 0 Z " fill="#DBDBDB" transform="translate(334.3125,133.125)"/>
<path d="M0 0 C7.26 0 14.52 0 22 0 C19.90309712 6.29070865 19.45749987 7.05295007 14 10 C8.84823068 11.64020006 3.32578971 11.66749898 -2 11 C-4.64714557 9.60316673 -5.96793008 8.25785547 -8 6 C-7.67 4.68 -7.34 3.36 -7 2 C-4.36 2 -1.72 2 1 2 C0.67 1.34 0.34 0.68 0 0 Z " fill="#DCDCDC" transform="translate(289,190)"/>
<path d="M0 0 C4.81091865 0.98405154 8.32358493 2.71635009 12.5 5.3125 C21.3762356 10.67173659 31.08415798 13.19410872 41 16 C40.69381595 19.67420866 40.24228216 20.78135513 37.4375 23.3125 C36.633125 23.869375 35.82875 24.42625 35 25 C35.66 25.99 36.32 26.98 37 28 C32.92558664 26.28392935 29.74941072 23.47289032 26.375 20.6875 C19.65683351 15.21065112 12.72010057 10.10079792 5.64013672 5.10229492 C4.90424316 4.57998291 4.16834961 4.0576709 3.41015625 3.51953125 C2.75152588 3.05651611 2.09289551 2.59350098 1.41430664 2.11645508 C0.94758545 1.7480249 0.48086426 1.37959473 0 1 C0 0.67 0 0.34 0 0 Z " fill="#CACACA" transform="translate(288,463)"/>
<path d="M0 0 C3.41234945 4.30252757 4.12540871 7.43914347 4.28125 12.8828125 C4.33732422 14.63464844 4.33732422 14.63464844 4.39453125 16.421875 C4.42933594 17.64390625 4.46414063 18.8659375 4.5 20.125 C4.72292996 27.8036985 5.01645476 35.37752436 6 43 C4.68 42.01 3.36 41.02 2 40 C-0.65620866 50.29280857 -1.00282604 60.0314569 1.5234375 70.32421875 C3.61641579 79.68215723 3.16573437 88.87498809 2.86303711 98.4074707 C2.5882071 107.83542076 2.84617763 115.56835334 6.22485352 124.49389648 C7 127 7 127 6 130 C5.34371151 128.79731319 4.70052495 127.58747446 4.0625 126.375 C3.70285156 125.70210938 3.34320313 125.02921875 2.97265625 124.3359375 C0.62177555 118.6900473 0.84070348 112.66094323 0.7890625 106.6484375 C0.76097805 104.8085851 0.73231349 102.96874147 0.703125 101.12890625 C0.66206752 98.25928143 0.62513685 95.38981767 0.59863281 92.52001953 C0.52764221 78.25051725 0.52764221 78.25051725 -2.33520508 64.32519531 C-3.85647864 59.00436925 -3.27240732 53.94125945 -2.0625 48.625 C-0.25641797 40.58088995 -0.3202779 32.20922838 0 24 C0.33 24 0.66 24 1 24 C1.33 27.63 1.66 31.26 2 35 C2.05427506 30.85398823 2.09380883 26.70869729 2.125 22.5625 C2.14175781 21.39783203 2.15851563 20.23316406 2.17578125 19.03320312 C2.21345755 12.34566067 1.75480996 6.45963509 0 0 Z " fill="#8A8A8A" transform="translate(369,102)"/>
<path d="M0 0 C0.33 0.66 0.66 1.32 1 2 C2.32 1.67 3.64 1.34 5 1 C3.61686753 5.03413637 1.65711698 7.69873345 -1 11 C-3.41190952 15.08169303 -4.47842829 18.82964145 -5.39453125 23.41015625 C-6.55717511 28.38327159 -8.32050777 33.18165093 -10 38 C-11.09898702 34.70303895 -10.87124444 33.59505097 -10.0625 30.3125 C-9.86785156 29.50425781 -9.67320312 28.69601563 -9.47265625 27.86328125 C-9.31667969 27.24839844 -9.16070312 26.63351563 -9 26 C-11.02224369 26.67402631 -11.02224369 26.67402631 -13 28 C-13.80247205 30.14560594 -13.80247205 30.14560594 -14.0625 32.5625 C-14.41015625 35.00390625 -14.41015625 35.00390625 -15 37 C-16.485 37.495 -16.485 37.495 -18 38 C-8.76923077 8.76923077 -8.76923077 8.76923077 0 0 Z " fill="#C5C5C5" transform="translate(260,84)"/>
<path d="M0 0 C2.9115281 1.37583975 5.48765528 2.95333027 8.109375 4.8203125 C8.86347656 5.35527344 9.61757813 5.89023437 10.39453125 6.44140625 C11.17183594 6.99699219 11.94914062 7.55257812 12.75 8.125 C13.54277344 8.68832031 14.33554687 9.25164063 15.15234375 9.83203125 C17.10334076 11.21888455 19.05247588 12.60827614 21 14 C20.435339 9.97145219 19.84429085 5.98022828 19 2 C21.74215385 5.18765784 22.73357865 7.98940726 23.6875 12.0625 C23.93886719 13.10535156 24.19023437 14.14820313 24.44921875 15.22265625 C25 18 25 18 25 21 C34.05758859 25.72503336 34.05758859 25.72503336 44 26 C46.66666667 24.66666667 46.66666667 24.66666667 48 22 C48.39279434 17.12935018 47.96008383 12.80041914 47 8 C49.99053503 10.99053503 50.21421186 13.80582322 50.375 17.875 C50.31027951 21.56406783 50.08145701 22.86423831 48.125 26.125 C43.53794729 28.87723162 40.21600464 29.08060654 35 28 C20.49706065 22.48456373 9.83787732 12.68949301 0 1 C0 0.67 0 0.34 0 0 Z " fill="#888888" transform="translate(350,515)"/>
<path d="M0 0 C0.33 0.66 0.66 1.32 1 2 C0.22265625 4.3125 0.22265625 4.3125 -0.9375 7 C-2.49740728 10.38917218 -2.49740728 10.38917218 -3 14 C-2.01 14 -1.02 14 0 14 C-0.63745671 18.17666948 -1.49808366 22.25913792 -2.45996094 26.36914062 C-5.01381999 37.3327236 -6.22008008 47.72700923 -6 59 C-5.67 59 -5.34 59 -5 59 C-5.51958285 63.37934119 -6.05675742 67.68803391 -7 72 C-7.33 72 -7.66 72 -8 72 C-8.33524802 56.0232829 -8.24568883 40.68749599 -5 25 C-5.99 26.32 -6.98 27.64 -8 29 C-8.35802776 22.79418556 -7.31145065 17.62149516 -5.65625 11.63671875 C-4.87923965 8.9676619 -4.87923965 8.9676619 -5 6 C-3.51448079 3.81947002 -1.75825803 1.97804029 0 0 Z " fill="#6F6F6F" transform="translate(254,333)"/>
<path d="M0 0 C1.23169922 -0.01611328 2.46339844 -0.03222656 3.73242188 -0.04882812 C10.18332028 -0.0523057 15.13765711 0.12618081 20.8125 3.3125 C20.1525 3.6425 19.4925 3.9725 18.8125 4.3125 C18.00425781 4.00957031 17.19601562 3.70664062 16.36328125 3.39453125 C11.53289087 1.9225641 7.02264899 1.97111286 2 2 C0.46629761 2.00845947 0.46629761 2.00845947 -1.09838867 2.01708984 C-19.28192305 2.30447533 -37.43289741 6.59381315 -53.4375 15.4296875 C-55.1875 16.3125 -55.1875 16.3125 -57.1875 16.3125 C-57.5175 17.3025 -57.8475 18.2925 -58.1875 19.3125 C-51.9175 19.6425 -45.6475 19.9725 -39.1875 20.3125 C-40.1775 21.6325 -41.1675 22.9525 -42.1875 24.3125 C-42.8475 23.9825 -43.5075 23.6525 -44.1875 23.3125 C-43.8575 22.9825 -43.5275 22.6525 -43.1875 22.3125 C-53.5825 22.8075 -53.5825 22.8075 -64.1875 23.3125 C-62.91791608 18.23416431 -61.41889509 17.62474375 -57.1640625 14.95703125 C-46.75706051 9.20723094 -35.75723016 5.05543603 -24.1875 2.3125 C-23.12873657 2.04651001 -23.12873657 2.04651001 -22.04858398 1.77514648 C-14.70321923 0.08803265 -7.51263512 -0.0198432 0 0 Z " fill="#676767" transform="translate(416.1875,300.6875)"/>
<path d="M0 0 C-0.13277344 0.59167969 -0.26554687 1.18335937 -0.40234375 1.79296875 C-0.57894531 2.58316406 -0.75554687 3.37335938 -0.9375 4.1875 C-1.11152344 4.96480469 -1.28554688 5.74210937 -1.46484375 6.54296875 C-1.72974609 7.75919922 -1.72974609 7.75919922 -2 9 C-2.17271423 9.75051132 -2.34542847 10.50102264 -2.52337646 11.27427673 C-3.04431336 14.25342004 -3.1415434 17.04433646 -3.16113281 20.06860352 C-3.17074036 21.27078018 -3.1803479 22.47295685 -3.19024658 23.71156311 C-3.19449646 25.00428635 -3.19874634 26.29700958 -3.203125 27.62890625 C-3.20736607 28.6255898 -3.20736607 28.6255898 -3.21169281 29.64240837 C-3.2266545 33.1640347 -3.23590096 36.68562044 -3.24023438 40.20727539 C-3.2456913 43.81238291 -3.26966839 47.41710745 -3.29820633 51.02209568 C-3.31700853 53.82170118 -3.3220477 56.62121802 -3.32357025 59.42088127 C-3.32799988 61.38590271 -3.34656447 63.35087635 -3.36553955 65.31581116 C-3.34827126 72.36008498 -2.67876821 78.61520352 -0.74237061 85.39854431 C-0.02325238 87.91851774 0.51936434 90.42509603 1 93 C-9.71243241 80.37771806 -6.31332449 59.46541515 -5.86938477 44.09039307 C-5.79317725 41.28993032 -5.7364354 38.48922436 -5.6805315 35.68829346 C-5.20570496 12.06217633 -5.20570496 12.06217633 -4 4 C-4.99 3.67 -5.98 3.34 -7 3 C-3.375 0 -3.375 0 0 0 Z " fill="#6A6A6A" transform="translate(263,99)"/>
<path d="M0 0 C4.45352389 5.2632555 5.25344541 10.51029121 5.265625 17.26953125 C5.26753845 17.94996994 5.2694519 18.63040863 5.27142334 19.33146667 C5.2727774 20.76435722 5.26913568 22.19726035 5.26074219 23.63012695 C5.2500811 25.79602404 5.26063772 27.96108235 5.2734375 30.12695312 C5.27978781 37.35740636 4.83395322 43.96743923 3 51 C2.76432107 53.74063235 2.76432107 53.74063235 2.875 56.0625 C2.91625 57.361875 2.9575 58.66125 3 60 C3.99 59.505 3.99 59.505 5 59 C4.7834375 59.56847656 4.566875 60.13695312 4.34375 60.72265625 C1.82356243 67.69390488 1.82356243 67.69390488 2 75 C4.08284505 77.93256293 6.43676681 80.48253883 9 83 C6 83 6 83 4.39233398 81.93237305 C0.57653442 78.05775123 -0.408027 75.22301874 -0.40234375 69.76953125 C-0.27949418 67.44859908 -0.12360754 65.12921797 0.0625 62.8125 C0.12888672 61.63751953 0.19527344 60.46253906 0.26367188 59.25195312 C0.54117799 54.71070813 0.83585396 50.40320434 2 46 C4.30898101 25.1483746 4.30898101 25.1483746 0.65625 4.8828125 C0 3 0 3 0 0 Z " fill="#ACACAC" transform="translate(243,230)"/>
<path d="M0 0 C0.33 0 0.66 0 1 0 C0.9278125 0.63164062 0.855625 1.26328125 0.78125 1.9140625 C-0.01880314 9.62568579 -0.10180114 17.25180183 0 25 C0.17015625 24.16597656 0.3403125 23.33195312 0.515625 22.47265625 C2.00383682 15.5619705 3.78907251 9.30776111 7 3 C8.22543391 6.67630173 7.6169412 7.55203486 6.1875 11.0625 C1.96961621 22.23261983 1.48931303 33.17922738 1 45 C-6.42997473 31.45122255 -3.12717653 14.33289243 0 0 Z " fill="#A0A0A0" transform="translate(236,346)"/>
<path d="M0 0 C3 0 3 0 5 1 C3.81149458 4.99770004 2.28683816 8.8053289 0.625 12.625 C0.22539062 13.54539062 -0.17421875 14.46578125 -0.5859375 15.4140625 C-2.08571254 18.15674503 -3.62171191 19.98177146 -6 22 C-6.66 22 -7.32 22 -8 22 C-7.83432041 13.71602066 -3.83270427 7.12502726 0 0 Z " fill="#EAEAEA" transform="translate(184,459)"/>
<path d="M0 0 C-1.39750048 3.15835107 -3.05198234 5.32272825 -5.5 7.75 C-6.1084375 8.36359375 -6.716875 8.9771875 -7.34375 9.609375 C-9 11 -9 11 -11 11 C-14.44219197 17.7887675 -17.82666636 24.68969594 -20 32 C-20.33 32 -20.66 32 -21 32 C-21.97538169 25.17232818 -20.27420286 20.6923136 -17.25 14.6875 C-16.90259766 13.99398438 -16.55519531 13.30046875 -16.19726562 12.5859375 C-14.2157398 8.81334675 -12.24855602 5.8461448 -9 3 C-9 4.32 -9 5.64 -9 7 C-8.51789063 6.4946875 -8.03578125 5.989375 -7.5390625 5.46875 C-6.90742188 4.8190625 -6.27578125 4.169375 -5.625 3.5 C-4.99851563 2.8503125 -4.37203125 2.200625 -3.7265625 1.53125 C-2 0 -2 0 0 0 Z " fill="#7F7F7F" transform="translate(161,437)"/>
<path d="M0 0 C0.56332031 0.25136719 1.12664062 0.50273437 1.70703125 0.76171875 C1.18729222 4.65309813 0.36308747 6.51807584 -2.41796875 9.26171875 C-7.21746561 14.42887893 -10.15593833 20.50672801 -13.29296875 26.76171875 C-13.62296875 26.10171875 -13.95296875 25.44171875 -14.29296875 24.76171875 C-13.296875 22.37890625 -13.296875 22.37890625 -11.85546875 19.63671875 C-11.38238281 18.72664063 -10.90929687 17.8165625 -10.421875 16.87890625 C-9.86306641 15.83089844 -9.86306641 15.83089844 -9.29296875 14.76171875 C-10.34567338 13.60360487 -10.34567338 13.60360487 -12.29296875 12.76171875 C-11.7487189 8.74902917 -9.77224674 6.77755029 -6.98046875 3.94921875 C-6.20058594 3.13839844 -5.42070312 2.32757813 -4.6171875 1.4921875 C-2.29296875 -0.23828125 -2.29296875 -0.23828125 0 0 Z " fill="#D7D7D7" transform="translate(197.29296875,447.23828125)"/>
<path d="M0 0 C-4.10639117 1.68085442 -7.80410275 0.25289997 -11.875 -0.875 C-27.64996917 -5.11873011 -44.24840562 -5.96007653 -60 -1 C-60.91910156 -0.71382813 -61.83820313 -0.42765625 -62.78515625 -0.1328125 C-64.86838054 0.54334994 -66.93659755 1.26556862 -69 2 C-67.46593371 -1.31467895 -66.13688367 -3.03944771 -63 -5 C-62.34 -5 -61.68 -5 -61 -5 C-61 -4.34 -61 -3.68 -61 -3 C-60.35160156 -3.2165625 -59.70320313 -3.433125 -59.03515625 -3.65625 C-39.37603228 -9.23623788 -19.00520792 -6.48103865 0 0 Z " fill="#868686" transform="translate(332,97)"/>
<path d="M0 0 C0.66 0.33 1.32 0.66 2 1 C0.02 4.96 -1.96 8.92 -4 13 C-4.66 13 -5.32 13 -6 13 C-6.309375 13.94875 -6.61875 14.8975 -6.9375 15.875 C-8 19 -8 19 -9 21 C-9.039992 22.99960012 -9.04346799 25.00047242 -9 27 C-8.01 25.35 -7.02 23.7 -6 22 C-5.67 22.66 -5.34 23.32 -5 24 C-5.66666667 25.33333333 -6.33333333 26.66666667 -7 28 C-7.45064632 30.58532701 -7.45064632 30.58532701 -7.625 33.25 C-7.73714844 34.58804688 -7.73714844 34.58804688 -7.8515625 35.953125 C-7.90054688 36.62859375 -7.94953125 37.3040625 -8 38 C-8.33 38 -8.66 38 -9 38 C-9 36.02 -9 34.04 -9 32 C-10.32 31.34 -11.64 30.68 -13 30 C-12.38332494 26.65544469 -11.69859427 23.3283345 -11 20 C-10.74283203 18.61554687 -10.74283203 18.61554687 -10.48046875 17.203125 C-8.83850775 9.70307088 -5.49278342 5.28403156 0 0 Z " fill="#9D9D9D" transform="translate(230,520)"/>
<path d="M0 0 C0.66 0.33 1.32 0.66 2 1 C-3.57685798 7.44436922 -9.43986833 13.57362611 -15.4375 19.625 C-16.14777344 20.34816406 -16.85804688 21.07132812 -17.58984375 21.81640625 C-18.26015625 22.48800781 -18.93046875 23.15960938 -19.62109375 23.8515625 C-20.2236499 24.45822754 -20.82620605 25.06489258 -21.44702148 25.68994141 C-23 27 -23 27 -25 27 C-23.91768522 24.47459884 -22.93144376 22.93352122 -20.9375 21 C-18.85933503 19.21940536 -18.85933503 19.21940536 -18.625 17.0625 C-17.57358263 13.59282266 -14.82428726 12.1043709 -12 10 C-11.36191406 9.70609375 -10.72382813 9.4121875 -10.06640625 9.109375 C-7.48897813 7.72565178 -5.78062366 5.97331111 -3.75 3.875 C-2.69039063 2.78832031 -2.69039063 2.78832031 -1.609375 1.6796875 C-1.07828125 1.12539063 -0.5471875 0.57109375 0 0 Z " fill="#C3C3C3" transform="translate(324,335)"/>
<path d="M0 0 C2.21484375 1.51953125 2.21484375 1.51953125 4 3 C3.15695312 3.06058594 2.31390625 3.12117187 1.4453125 3.18359375 C0.34960938 3.26738281 -0.74609375 3.35117188 -1.875 3.4375 C-2.96554687 3.51871094 -4.05609375 3.59992188 -5.1796875 3.68359375 C-7.94728971 3.83001703 -7.94728971 3.83001703 -10 5 C-8.35 5.33 -6.7 5.66 -5 6 C-5 6.66 -5 7.32 -5 8 C-4.01 8.33 -3.02 8.66 -2 9 C-2 9.33 -2 9.66 -2 10 C-5.96 10 -9.92 10 -14 10 C-14.33 8.35 -14.66 6.7 -15 5 C-11.61981158 -0.07028263 -5.60057132 -0.50914285 0 0 Z " fill="#F5F5F5" transform="translate(320,138)"/>
<path d="M0 0 C-0.99 0.66 -1.98 1.32 -3 2 C-1.02 1.67 0.96 1.34 3 1 C0.28239723 3.71760277 -2.92987916 4.78511161 -6.4375 6.1875 C-7.11876953 6.47302734 -7.80003906 6.75855469 -8.50195312 7.05273438 C-13.63859042 9.12046986 -13.63859042 9.12046986 -17 8 C-15.68 7.34 -14.36 6.68 -13 6 C-13.65742188 6.0721875 -14.31484375 6.144375 -14.9921875 6.21875 C-24.33908566 7.1306425 -33.62111639 7.09378884 -43 7 C-43 6.67 -43 6.34 -43 6 C-41.93523437 5.96261719 -40.87046875 5.92523438 -39.7734375 5.88671875 C-27.34182078 5.35955252 -15.72585494 3.45045432 -3.890625 -0.546875 C-2 -1 -2 -1 0 0 Z " fill="#7D7D7D" transform="translate(227,494)"/>
<path d="M0 0 C6.68160252 6.68160252 6.35536208 21.45726944 6.390625 30.28515625 C6.37861968 34.21184258 6.31816173 38.13644839 6.25 42.0625 C6.22987722 44.10479993 6.21163681 46.1471193 6.1953125 48.18945312 C6.15183716 53.12679449 6.08313847 58.06317382 6 63 C2.90576832 59.90576832 2.06293995 56.4476188 1.875 52.125 C1.91625 51.42375 1.9575 50.7225 2 50 C2.66 50.66 3.32 51.32 4 52 C4.57941643 29.31218638 4.57941643 29.31218638 1 7 C0.64106893 4.67046699 0.30135283 2.33767877 0 0 Z " fill="#8C8C8C" transform="translate(482,382)"/>
<path d="M0 0 C0.33 0 0.66 0 1 0 C1 2.64 1 5.28 1 8 C2.32 7.01 3.64 6.02 5 5 C4.67 6.65 4.34 8.3 4 10 C3.34 10 2.68 10 2 10 C1.72414063 10.84820312 1.44828125 11.69640625 1.1640625 12.5703125 C-0.01454991 16.04286854 -1.29930406 19.45609995 -2.625 22.875 C-3.07101562 24.02742188 -3.51703125 25.17984375 -3.9765625 26.3671875 C-4.31429688 27.23601562 -4.65203125 28.10484375 -5 29 C-6.0651295 25.80461151 -5.94654779 24.74376271 -5.29296875 21.54296875 C-5.11830078 20.67736328 -4.94363281 19.81175781 -4.76367188 18.91992188 C-4.57353516 18.01822266 -4.38339844 17.11652344 -4.1875 16.1875 C-3.91969727 14.85235352 -3.91969727 14.85235352 -3.64648438 13.49023438 C-2.69874784 8.87472324 -1.62061897 4.4365361 0 0 Z " fill="#9E9E9E" transform="translate(385,438)"/>
<path d="M0 0 C0.33 0.66 0.66 1.32 1 2 C0.22265625 4.3125 0.22265625 4.3125 -0.9375 7 C-2.49740728 10.38917218 -2.49740728 10.38917218 -3 14 C-2.34 14 -1.68 14 -1 14 C-3 19 -5 24 -7 29 C-7.33 29 -7.66 29 -8 29 C-8.35802776 22.79418556 -7.31145065 17.62149516 -5.65625 11.63671875 C-4.87923965 8.9676619 -4.87923965 8.9676619 -5 6 C-3.51448079 3.81947002 -1.75825803 1.97804029 0 0 Z " fill="#717171" transform="translate(254,333)"/>
<path d="M0 0 C-1.15173355 2.46800047 -2.04783565 4.04783565 -4 6 C-2.96359375 5.97679687 -1.9271875 5.95359375 -0.859375 5.9296875 C0.51040944 5.91092333 1.8802017 5.89272382 3.25 5.875 C3.93191406 5.85824219 4.61382812 5.84148437 5.31640625 5.82421875 C9.0608235 5.78786518 11.82352727 5.92055651 15 8 C13.74445313 8.03738281 12.48890625 8.07476562 11.1953125 8.11328125 C-1.66656699 8.54069859 -1.66656699 8.54069859 -14 12 C-13.67 11.34 -13.34 10.68 -13 10 C-12.34 10 -11.68 10 -11 10 C-10.7421875 9.40703125 -10.484375 8.8140625 -10.21875 8.203125 C-8.90230105 5.82339035 -7.57419218 4.49021208 -5.5 2.75 C-4.8915625 2.22921875 -4.283125 1.7084375 -3.65625 1.171875 C-2 0 -2 0 0 0 Z " fill="#9D9D9D" transform="translate(315,355)"/>
<path d="M0 0 C7.26 0 14.52 0 22 0 C18 4 18 4 15.89697266 4.4699707 C14.79168213 4.44809692 14.79168213 4.44809692 13.6640625 4.42578125 C12.84679687 4.41740234 12.02953125 4.40902344 11.1875 4.40039062 C10.341875 4.37138672 9.49625 4.34238281 8.625 4.3125 C7.36816406 4.29799805 7.36816406 4.29799805 6.0859375 4.28320312 C1.6321626 4.20267103 -2.6189366 3.87763974 -7 3 C-7 2.67 -7 2.34 -7 2 C-4.36 2 -1.72 2 1 2 C0.67 1.34 0.34 0.68 0 0 Z " fill="#A3A3A3" transform="translate(289,190)"/>
<path d="M0 0 C1.45990151 4.37970453 0.36416865 8.46057749 -0.328125 12.93164062 C-0.93663745 17.21124465 -0.95387398 20.78043246 0 25 C-1.32 25.99 -2.64 26.98 -4 28 C-3.979375 26.906875 -3.95875 25.81375 -3.9375 24.6875 C-3.81455548 21.05615809 -3.81455548 21.05615809 -5 18 C-4.67329097 15.99890722 -4.34022786 13.99883869 -4 12 C-4.33 11.34 -4.66 10.68 -5 10 C-4.00390625 7.6171875 -4.00390625 7.6171875 -2.5625 4.875 C-1.85287109 3.50988281 -1.85287109 3.50988281 -1.12890625 2.1171875 C-0.75636719 1.41851562 -0.38382812 0.71984375 0 0 Z " fill="#4D4D4D" transform="translate(267,339)"/>
<path d="M0 0 C0.90105469 0.01804687 1.80210937 0.03609375 2.73046875 0.0546875 C3.41753906 0.07789063 4.10460937 0.10109375 4.8125 0.125 C4.8125 0.455 4.8125 0.785 4.8125 1.125 C1.1825 1.785 -2.4475 2.445 -6.1875 3.125 C-1.2375 4.775 3.7125 6.425 8.8125 8.125 C5.14973236 9.34592255 3.6723357 8.72684029 0 7.6875 C-7.14895428 5.59987614 -7.14895428 5.59987614 -14.1875 7.125 C-16.8125 5.75 -16.8125 5.75 -19.1875 4.125 C-19.1875 3.795 -19.1875 3.465 -19.1875 3.125 C-18.04861328 3.05152344 -18.04861328 3.05152344 -16.88671875 2.9765625 C-15.39591797 2.86441406 -15.39591797 2.86441406 -13.875 2.75 C-12.88886719 2.68039062 -11.90273438 2.61078125 -10.88671875 2.5390625 C-6.65298885 1.88960466 -4.52890469 -0.11763389 0 0 Z " fill="#6D6D6D" transform="translate(393.1875,478.875)"/>
<path d="M0 0 C0.9849372 3.47281559 0.72377792 5.46153015 0 9 C-0.08961137 11.67340575 -0.04535771 14.3238952 0 17 C0.66 16.34 1.32 15.68 2 15 C0.9318153 20.11365014 -0.23107476 25.07227969 -2 30 C-2.33 30 -2.66 30 -3 30 C-2.98839844 28.81921875 -2.97679687 27.6384375 -2.96484375 26.421875 C-2.95546248 24.86458492 -2.94636264 23.30729312 -2.9375 21.75 C-2.92912109 20.97269531 -2.92074219 20.19539063 -2.91210938 19.39453125 C-2.90888672 18.64042969 -2.90566406 17.88632812 -2.90234375 17.109375 C-2.89710693 16.41811523 -2.89187012 15.72685547 -2.88647461 15.01464844 C-2.9349229 12.96231118 -2.9349229 12.96231118 -3.5546875 10.890625 C-4.19440842 8.17461687 -3.26103633 6.71971122 -2.0625 4.25 C-1.68222656 3.45078125 -1.30195313 2.6515625 -0.91015625 1.828125 C-0.60980469 1.22484375 -0.30945313 0.6215625 0 0 Z " fill="#B9B9B9" transform="translate(233,328)"/>
<path d="M0 0 C3.5586506 3.14773888 5.3533332 6.31774991 7.3125 10.625 C7.84488281 11.77226563 8.37726563 12.91953125 8.92578125 14.1015625 C9.28027344 15.05804687 9.63476562 16.01453125 10 17 C9.67 17.66 9.34 18.32 9 19 C7.66072279 17.54712339 6.32873153 16.08752741 5 14.625 C4.2575 13.81289063 3.515 13.00078125 2.75 12.1640625 C1 10 1 10 1 8 C0.34 8 -0.32 8 -1 8 C-1 7.34 -1 6.68 -1 6 C-1.66 6 -2.32 6 -3 6 C-2.67 5.34 -2.34 4.68 -2 4 C-1.34 4 -0.68 4 0 4 C0 2.68 0 1.36 0 0 Z " fill="#A2A2A2" transform="translate(400,504)"/>
<path d="M0 0 C4.23429756 1.31061591 8.07407404 2.94356259 12 5 C6.13184995 8.91210003 -2.10231689 7.51362621 -8.8125 6.32421875 C-11.89590139 5.61084409 -14.95185774 4.85064435 -18 4 C-18 3.67 -18 3.34 -18 3 C-17.42894531 3.0721875 -16.85789062 3.144375 -16.26953125 3.21875 C-9.16333588 4.03217777 -2.14697766 4.10081943 5 4 C3.7625 3.2884375 3.7625 3.2884375 2.5 2.5625 C1.675 2.046875 0.85 1.53125 0 1 C0 0.67 0 0.34 0 0 Z " fill="#C2C2C2" transform="translate(301,533)"/>
<path d="M0 0 C1.03125 0.165 2.0625 0.33 3.125 0.5 C6.86746143 1.10577271 6.86746143 1.10577271 10.125 0.8125 C13.84350207 1.055011 15.33735946 2.49398538 18 5 C17.67 5.66 17.34 6.32 17 7 C16.01 6.34 15.02 5.68 14 5 C10.87163449 5.45875957 10.87163449 5.45875957 7.5 6.4375 C1.31028037 8.10342679 1.31028037 8.10342679 -2 7 C-0.35 6.34 1.3 5.68 3 5 C3.22609337 2.87635519 3.22609337 2.87635519 1.5 1.375 C1.005 0.92125 0.51 0.4675 0 0 Z " fill="#CCCCCC" transform="translate(223,489)"/>
<path d="M0 0 C4.67105792 1.55701931 8.08705685 4.08447373 12 7 C10 8 10 8 7.3828125 7.22265625 C6.30773437 6.83980469 5.23265625 6.45695312 4.125 6.0625 C-5.67285334 2.92977953 -14.92369016 3.75160763 -25 5 C-21.68258101 1.68258101 -17.74463462 2.02604689 -13.203125 1.8671875 C-11.89859375 1.86976563 -10.5940625 1.87234375 -9.25 1.875 C-7.93515625 1.87242187 -6.6203125 1.86984375 -5.265625 1.8671875 C-2 2 -2 2 0 3 C0 2.01 0 1.02 0 0 Z " fill="#707070" transform="translate(443,445)"/>
<path d="M0 0 C0.66 0.33 1.32 0.66 2 1 C-5.59 8.59 -13.18 16.18 -21 24 C-21 19.87532888 -18.81803239 18.21429075 -16.125 15.375 C-15.38866333 14.58464355 -15.38866333 14.58464355 -14.63745117 13.77832031 C-10.01867417 8.88654496 -5.10370758 4.38409588 0 0 Z " fill="#E5E5E5" transform="translate(292,414)"/>
<path d="M0 0 C0 0.66 0 1.32 0 2 C0.87398438 2.07476562 1.74796875 2.14953125 2.6484375 2.2265625 C13.35014843 3.37077059 22.90916473 6.32430055 33 10 C28.99309797 11.33563401 26.34903547 10.02166932 22.5 8.75 C13.13590975 5.80289989 3.70965643 4.31096349 -6 3 C-2.25 0 -2.25 0 0 0 Z " fill="#898989" transform="translate(403,456)"/>
<path d="M0 0 C2.125 0.375 2.125 0.375 4 1 C3.67 1.33 3.34 1.66 3 2 C9.27 2.33 15.54 2.66 22 3 C21.01 4.32 20.02 5.64 19 7 C18.34 6.67 17.68 6.34 17 6 C17.33 5.67 17.66 5.34 18 5 C7.605 5.495 7.605 5.495 -3 6 C-2 2 -2 2 0 0 Z " fill="#9D9D9D" transform="translate(355,318)"/>
<path d="M0 0 C1 2 1 2 0.44140625 3.9453125 C0.15136719 4.66460937 -0.13867188 5.38390625 -0.4375 6.125 C-0.72496094 6.84945313 -1.01242187 7.57390625 -1.30859375 8.3203125 C-1.53675781 8.87460937 -1.76492188 9.42890625 -2 10 C-1.01 9.34 -0.02 8.68 1 8 C-0.55500981 11.81684226 -3.03595495 14.19195732 -6 17 C-7.2421875 14.3671875 -7.2421875 14.3671875 -8 11 C-6.4453125 8.0078125 -6.4453125 8.0078125 -4.125 5.125 C-3.36445313 4.15820312 -2.60390625 3.19140625 -1.8203125 2.1953125 C-1.21960938 1.47085937 -0.61890625 0.74640625 0 0 Z " fill="#9D9D9D" transform="translate(289,352)"/>
<path d="M0 0 C1.32 0 2.64 0 4 0 C4.33 0.99 4.66 1.98 5 3 C8.71736641 3.34900558 8.71736641 3.34900558 11.8125 1.5 C12.204375 1.005 12.59625 0.51 13 0 C13.33 1.32 13.66 2.64 14 4 C10.22777911 5.75163456 7.333361 6.22490027 3.1875 6.125 C1.72376953 6.09792969 1.72376953 6.09792969 0.23046875 6.0703125 C-0.50558594 6.04710937 -1.24164063 6.02390625 -2 6 C-1.125 1.125 -1.125 1.125 0 0 Z " fill="#DDDDDD" transform="translate(269,142)"/>
<path d="M0 0 C3.875 1.875 3.875 1.875 5 3 C9.03160191 3.26293056 10.55892734 3.29404844 14 1 C16.73990408 1.03143293 19.28417854 1.55478337 22 2 C22 1.34 22 0.68 22 0 C22.66 0.33 23.32 0.66 24 1 C20.9483858 4.94914779 16.72137859 5.60072438 11.9765625 6.296875 C7.96723181 6.57338057 5.55242909 6.04753639 2.5 3.5625 C0 1 0 1 0 0 Z " fill="#393939" transform="translate(281,177)"/>
<path d="M0 0 C-2.98215399 6.65137288 -8.31382763 11.22768463 -15 14 C-14.46884894 9.48521602 -12.63379708 6.65333143 -10 3 C-10 3.99 -10 4.98 -10 6 C-9.67 6.33 -9.34 6.66 -9 7 C-8.51789063 6.4946875 -8.03578125 5.989375 -7.5390625 5.46875 C-6.90742188 4.8190625 -6.27578125 4.169375 -5.625 3.5 C-4.99851563 2.8503125 -4.37203125 2.200625 -3.7265625 1.53125 C-2 0 -2 0 0 0 Z " fill="#969696" transform="translate(161,437)"/>
<path d="M0 0 C1.73152958 1.07955259 3.46011684 2.16382512 5.1875 3.25 C6.15042969 3.85328125 7.11335938 4.4565625 8.10546875 5.078125 C10.87405327 6.91637545 13.43957951 8.88425949 16 11 C15.67 11.66 15.34 12.32 15 13 C14.34 12.67 13.68 12.34 13 12 C13.33 13.32 13.66 14.64 14 16 C11.31449491 13.39122362 8.78582335 10.79217186 6.4375 7.875 C4.38193078 5.45048246 2.51700382 3.86444728 0 2 C0 1.34 0 0.68 0 0 Z " fill="#676767" transform="translate(371,486)"/>
<path d="M0 0 C7.13419658 1.45926748 12.84925925 5.2226978 19 9 C18.34 9.66 17.68 10.32 17 11 C17.33 11.66 17.66 12.32 18 13 C13.88955302 11.18351459 10.38136102 8.54661813 6.75 5.9375 C6.1003125 5.47794922 5.450625 5.01839844 4.78125 4.54492188 C3.16759306 3.39061476 1.58110319 2.19851004 0 1 C0 0.67 0 0.34 0 0 Z " fill="#9A9A9A" transform="translate(288,463)"/>
<path d="M0 0 C2.98088859 0.42757405 5.95931643 0.86677037 8.9375 1.3125 C10.18370117 1.48942383 10.18370117 1.48942383 11.45507812 1.66992188 C17.21737704 2.54435634 22.53428144 3.9797911 28 6 C24.44124828 7.02624902 22.80832984 6.77320647 19.3125 5.5 C11.57344155 3.17617946 3.92179324 4.22918073 -4 5 C-3.34 4.360625 -2.68 3.72125 -2 3.0625 C0.11602431 1.35917681 0.11602431 1.35917681 0 0 Z " fill="#D2D2D2" transform="translate(231,445)"/>
<path d="M0 0 C-0.99 0.33 -1.98 0.66 -3 1 C-3.73323796 3.01508358 -3.73323796 3.01508358 -4 5 C-6.9375 4.625 -6.9375 4.625 -10 4 C-10.33 3.34 -10.66 2.68 -11 2 C-12.98 2 -14.96 2 -17 2 C-14.37009616 -3.25980767 -4.83213799 -1.2080345 0 0 Z " fill="#3C3C3C" transform="translate(325,142)"/>
<path d="M0 0 C-0.13277344 0.59167969 -0.26554687 1.18335937 -0.40234375 1.79296875 C-0.57894531 2.58316406 -0.75554687 3.37335938 -0.9375 4.1875 C-1.11152344 4.96480469 -1.28554688 5.74210937 -1.46484375 6.54296875 C-1.72974609 7.75919922 -1.72974609 7.75919922 -2 9 C-2.1753125 9.721875 -2.350625 10.44375 -2.53125 11.1875 C-3.22942728 15.3765637 -3.36969859 19.57402959 -3.5625 23.8125 C-3.60568359 24.69615234 -3.64886719 25.57980469 -3.69335938 26.49023438 C-3.79891536 28.65999623 -3.89991071 30.8299791 -4 33 C-4.33 33 -4.66 33 -5 33 C-5.02937438 29.66668561 -5.04692334 26.33340517 -5.0625 23 C-5.07087891 22.06542969 -5.07925781 21.13085938 -5.08789062 20.16796875 C-5.10708892 14.67725599 -4.8134193 9.43133519 -4 4 C-4.99 3.67 -5.98 3.34 -7 3 C-3.375 0 -3.375 0 0 0 Z " fill="#787878" transform="translate(263,99)"/>
<path d="M0 0 C1.32 0 2.64 0 4 0 C2.23570801 4.97209562 -0.3939166 9.43438061 -3 14 C-3.99 13.34 -4.98 12.68 -6 12 C-4.43358249 7.69235185 -2.31663844 3.93828536 0 0 Z " fill="#B9B9B9" transform="translate(277,365)"/>
<path d="M0 0 C0.33 0.66 0.66 1.32 1 2 C2.32 1.67 3.64 1.34 5 1 C3.64075883 5.44842565 1.72778002 7.29735949 -2 10 C-2.66 10.66 -3.32 11.32 -4 12 C-5.40253926 7.79238221 -3.90602531 5.88264416 -2 2 C-1.34 1.34 -0.68 0.68 0 0 Z " fill="#B5B5B5" transform="translate(260,84)"/>
<path d="M0 0 C0.98871094 -0.01417969 1.97742188 -0.02835938 2.99609375 -0.04296875 C5.5625 0.1875 5.5625 0.1875 7.5625 2.1875 C6.5725 3.6725 6.5725 3.6725 5.5625 5.1875 C2.9375 5.375 2.9375 5.375 0.5625 5.1875 C0.2325 3.8675 -0.0975 2.5475 -0.4375 1.1875 C-2.0875 1.8475 -3.7375 2.5075 -5.4375 3.1875 C-5.4375 4.1775 -5.4375 5.1675 -5.4375 6.1875 C-6.4275 5.8575 -7.4175 5.5275 -8.4375 5.1875 C-6.08602198 0.32777876 -5.48938851 0.03569173 0 0 Z " fill="#232323" transform="translate(273.4375,140.8125)"/>
<path d="M0 0 C0.33 0 0.66 0 1 0 C1 2.33333333 1 4.66666667 1 7 C1.33 7.99 1.66 8.98 2 10 C1.00390625 12.91796875 1.00390625 12.91796875 -0.4375 16.1875 C-0.91058594 17.27417969 -1.38367188 18.36085938 -1.87109375 19.48046875 C-2.24363281 20.31191406 -2.61617188 21.14335937 -3 22 C-3.33 22 -3.66 22 -4 22 C-3.61422945 14.25798419 -2.57611228 7.32328775 0 0 Z " fill="#959595" transform="translate(260,388)"/>
<path d="M0 0 C0.66 0.33 1.32 0.66 2 1 C-2.52975173 7.55430315 -7.09372897 12.00657797 -14 16 C-10.88847163 9.29260159 -5.73988517 4.50990977 0 0 Z " fill="#7E7E7E" transform="translate(393,353)"/>
<path d="M0 0 C0 0.66 0 1.32 0 2 C0.99 2.33 1.98 2.66 3 3 C3 3.33 3 3.66 3 4 C-0.96 4 -4.92 4 -9 4 C-9 2.68 -9 1.36 -9 0 C-5.67465243 -1.10844919 -3.37817425 -0.84454356 0 0 Z " fill="#F3F3F3" transform="translate(315,144)"/>
<path d="M0 0 C4.16206979 2.02241419 8.14026848 4.35122508 12.1484375 6.66015625 C15.13852747 8.06508893 17.73335993 8.60973769 21 9 C21 9.33 21 9.66 21 10 C14.25 10.125 14.25 10.125 12 9 C11.67 10.32 11.34 11.64 11 13 C10.34 12.67 9.68 12.34 9 12 C9 11.01 9 10.02 9 9 C7.00567746 6.90016897 7.00567746 6.90016897 4.5 4.875 C2.98622519 3.59950456 1.4824108 2.31181591 0 1 C0 0.67 0 0.34 0 0 Z " fill="#929292" transform="translate(314,527)"/>
<path d="M0 0 C0.66 0.33 1.32 0.66 2 1 C0.06327014 3.10488005 -1.87435141 5.20892696 -3.8125 7.3125 C-4.35970703 7.90740234 -4.90691406 8.50230469 -5.47070312 9.11523438 C-6.00244141 9.69208984 -6.53417969 10.26894531 -7.08203125 10.86328125 C-7.81256714 11.65665894 -7.81256714 11.65665894 -8.55786133 12.46606445 C-9.03376709 12.97226318 -9.50967285 13.47846191 -10 14 C-10.51393311 14.55969482 -11.02786621 15.11938965 -11.55737305 15.69604492 C-13 17 -13 17 -15 17 C-13.67879172 14.06769807 -12.25361803 12.01335101 -9.9609375 9.765625 C-9.38085938 9.19199219 -8.80078125 8.61835938 -8.203125 8.02734375 C-7.59984375 7.44082031 -6.9965625 6.85429687 -6.375 6.25 C-5.76398438 5.64800781 -5.15296875 5.04601562 -4.5234375 4.42578125 C-3.02011376 2.94594695 -1.51065144 1.47235324 0 0 Z " fill="#BABABA" transform="translate(147,396)"/>
<path d="M0 0 C0.33 0.66 0.66 1.32 1 2 C3.64 2 6.28 2 9 2 C7 4 7 4 3.375 4.23046875 C1.9166018 4.22647678 0.45820257 4.2117184 -1 4.1875 C-1.73734375 4.18685547 -2.4746875 4.18621094 -3.234375 4.18554688 C-8.71898191 4.14050904 -8.71898191 4.14050904 -11 3 C-11 2.34 -11 1.68 -11 1 C-7.32589215 -0.17571451 -3.83070817 -0.07366746 0 0 Z " fill="#E4E4E4" transform="translate(289,189)"/>
<path d="M0 0 C0.66 0 1.32 0 2 0 C3.38938077 1.96147874 4.7260411 3.96166576 6 6 C5.67 6.66 5.34 7.32 5 8 C4.5875 7.484375 4.175 6.96875 3.75 6.4375 C3.1725 5.963125 2.595 5.48875 2 5 C0.65835921 5.2981424 -0.67323492 5.64141484 -2 6 C-4.69836555 5.80836943 -7.32118339 5.40182249 -10 5 C-10 4.67 -10 4.34 -10 4 C-8.02 3.67 -6.04 3.34 -4 3 C-6.31 2.67 -8.62 2.34 -11 2 C-11 1.67 -11 1.34 -11 1 C-9.54176788 0.9729957 -8.08339325 0.95360213 -6.625 0.9375 C-5.81289063 0.92589844 -5.00078125 0.91429687 -4.1640625 0.90234375 C-2 1 -2 1 0 2 C0 1.34 0 0.68 0 0 Z " fill="#B3B3B3" transform="translate(281,136)"/>
<path d="M0 0 C0.33 0.66 0.66 1.32 1 2 C0.67 2.66 0.34 3.32 0 4 C-0.49489718 10.80483621 0.99811864 16.51771751 3 23 C-0.90669429 21.56171454 -3.19713709 20.11429212 -6 17 C-5.67 16.34 -5.34 15.68 -5 15 C-3.68 16.32 -2.36 17.64 -1 19 C-1.16113281 18.29101562 -1.32226562 17.58203125 -1.48828125 16.8515625 C-2.00514554 13.97132636 -2.16736348 11.29882247 -2.1875 8.375 C-2.20167969 7.43398438 -2.21585938 6.49296875 -2.23046875 5.5234375 C-2 3 -2 3 0 0 Z " fill="#868686" transform="translate(212,522)"/>
<path d="M0 0 C1.95792062 0.9824318 3.87244564 2.00398258 5.765625 3.10546875 C4.775625 3.60046875 4.775625 3.60046875 3.765625 4.10546875 C3.1675 3.79609375 2.569375 3.48671875 1.953125 3.16796875 C-0.6107689 1.92264886 -2.41978665 1.94910273 -5.234375 2.10546875 C-4.244375 3.09546875 -3.254375 4.08546875 -2.234375 5.10546875 C-5.864375 4.11546875 -9.494375 3.12546875 -13.234375 2.10546875 C-10.93895127 -2.48537871 -4.1488517 -1.66099133 0 0 Z " fill="#BBBBBB" transform="translate(200.234375,365.89453125)"/>
<path d="M0 0 C-1.98 0.66 -3.96 1.32 -6 2 C-2.7 2.99 0.6 3.98 4 5 C-0.14416647 6.03604162 -3.02142353 5.91488137 -7.25 5.5625 C-8.51328125 5.46066406 -9.7765625 5.35882813 -11.078125 5.25390625 C-12.04234375 5.17011719 -13.0065625 5.08632813 -14 5 C-5.44152335 -2.01537902 -5.44152335 -2.01537902 0 0 Z " fill="#787878" transform="translate(189,382)"/>
<path d="M0 0 C1 2 1 2 -0.21484375 5.6953125 C-0.78133585 7.17485658 -1.35591889 8.65132181 -1.9375 10.125 C-2.22818359 10.87910156 -2.51886719 11.63320313 -2.81835938 12.41015625 C-3.53874998 14.27608602 -4.26850404 16.1383958 -5 18 C-5.99 17.01 -6.98 16.02 -8 15 C-6.51194289 9.19657726 -3.40902445 4.82409121 0 0 Z " fill="#B5B5B5" transform="translate(243,328)"/>
<path d="M0 0 C0.66 0.33 1.32 0.66 2 1 C1.24074219 1.73605469 0.48148437 2.47210938 -0.30078125 3.23046875 C-1.30495521 4.2158731 -2.30884654 5.20156552 -3.3125 6.1875 C-3.81201172 6.67025391 -4.31152344 7.15300781 -4.82617188 7.65039062 C-7.77863234 10.56374566 -9.93412636 13.4225115 -12 17 C-14.1875 18.3125 -14.1875 18.3125 -16 19 C-14.35437425 14.95896636 -11.50767109 12.06698427 -8.5625 8.9375 C-8.07201172 8.40833984 -7.58152344 7.87917969 -7.07617188 7.33398438 C-4.76143767 4.84431749 -2.42853755 2.37914357 0 0 Z " fill="#898989" transform="translate(359,348)"/>
<path d="M0 0 C0.47050781 0.40992188 0.94101562 0.81984375 1.42578125 1.2421875 C2.04839844 1.78101563 2.67101562 2.31984375 3.3125 2.875 C4.23482422 3.67550781 4.23482422 3.67550781 5.17578125 4.4921875 C7.13498212 6.1640447 7.13498212 6.1640447 10 8 C9.67 6.35 9.34 4.7 9 3 C12.14958831 6.42346555 12.56179109 9.44262737 13 14 C8.445213 10.19985226 4.04720741 6.34334454 0 2 C0 1.34 0 0.68 0 0 Z " fill="#919191" transform="translate(377,520)"/>
<path d="M0 0 C0.33 0 0.66 0 1 0 C1 2.64 1 5.28 1 8 C2.32 7.01 3.64 6.02 5 5 C4.67 6.65 4.34 8.3 4 10 C3.01 10.33 2.02 10.66 1 11 C-0.68538601 12.99665314 -0.68538601 12.99665314 -2 15 C-3.08056059 11.02840314 -2.85815614 8.57446843 -1.5625 4.6875 C-1.27503906 3.80449219 -0.98757813 2.92148437 -0.69140625 2.01171875 C-0.46324219 1.34785156 -0.23507812 0.68398438 0 0 Z " fill="#CCCCCC" transform="translate(385,438)"/>
<path d="M0 0 C0.99 0.33 1.98 0.66 3 1 C2.34 1 1.68 1 1 1 C0.67 1.99 0.34 2.98 0 4 C0.66 4.66 1.32 5.32 2 6 C-4.75 10 -4.75 10 -7 10 C-5.7771055 5.10842202 -4.3522544 2.65381366 0 0 Z " fill="#B2B2B2" transform="translate(310,133)"/>
<path d="M0 0 C3.08859947 1.35335595 5.007964 2.80886249 7.1875 5.375 C7.95126953 6.25285156 7.95126953 6.25285156 8.73046875 7.1484375 C10.07559273 9.11024909 10.57514402 10.676089 11 13 C9.67823515 12.09674384 8.36784934 11.17682097 7.0625 10.25 C6.33160156 9.73953125 5.60070312 9.2290625 4.84765625 8.703125 C2.73570209 6.75637656 2.51539781 5.75602199 2 3 C1.34 2.01 0.68 1.02 0 0 Z " fill="#CCCCCC" transform="translate(346,490)"/>
<path d="M0 0 C1.06574819 2.72935513 1.03262614 3.89983202 0.109375 6.734375 C-0.33921875 7.72953125 -0.7878125 8.7246875 -1.25 9.75 C-1.71277344 10.801875 -2.17554688 11.85375 -2.65234375 12.9375 C-3.09707031 13.948125 -3.54179687 14.95875 -4 16 C-5.03978176 18.65407328 -6.02167188 21.32247041 -7 24 C-7.66 24 -8.32 24 -9 24 C-6.41874331 15.82602049 -3.22988119 7.93359166 0 0 Z " fill="#7F7F7F" transform="translate(251,98)"/>
<path d="M0 0 C2.4474259 2.4474259 2.73452665 4.65579469 3.4921875 7.95703125 C4.1021264 10.41086236 4.98754816 12.68582437 6 15 C2.66442368 12.0094833 0.84916079 9.06815373 -1 5 C-2.485 7.475 -2.485 7.475 -4 10 C-4.33 9.34 -4.66 8.68 -5 8 C-4.00390625 6.0546875 -4.00390625 6.0546875 -2.5625 3.875 C-2.08941406 3.15054687 -1.61632812 2.42609375 -1.12890625 1.6796875 C-0.75636719 1.12539063 -0.38382813 0.57109375 0 0 Z " fill="#C0C0C0" transform="translate(237,304)"/>
<path d="M0 0 C0 3.55157911 -0.99418238 5.48763755 -2.5 8.6875 C-3.19609375 10.17830078 -3.19609375 10.17830078 -3.90625 11.69921875 C-4.44765625 12.83810547 -4.44765625 12.83810547 -5 14 C-5.66 13.34 -6.32 12.68 -7 12 C-7.99 12.495 -7.99 12.495 -9 13 C-7.50923566 9.7173068 -5.61379679 7.06922559 -3.375 4.25 C-2.74335938 3.45078125 -2.11171875 2.6515625 -1.4609375 1.828125 C-0.97882813 1.22484375 -0.49671875 0.6215625 0 0 Z " fill="#616161" transform="translate(276,349)"/>
<path d="M0 0 C-2 5 -4 10 -6 15 C-6.33 15 -6.66 15 -7 15 C-7.1953125 8.9453125 -7.1953125 8.9453125 -7 7 C-6.34 6.34 -5.68 5.68 -5 5 C-4.835 4.319375 -4.67 3.63875 -4.5 2.9375 C-4.335 2.298125 -4.17 1.65875 -4 1 C-2 0 -2 0 0 0 Z " fill="#AEAEAE" transform="translate(253,347)"/>
<path d="M0 0 C2.26185454 2.26185454 3.03921617 3.96983561 4 7 C3.67 7.99 3.34 8.98 3 10 C2.67 8.68 2.34 7.36 2 6 C1.34 6 0.68 6 0 6 C0.33 8.31 0.66 10.62 1 13 C-0.32 11.68 -1.64 10.36 -3 9 C-2.34 9 -1.68 9 -1 9 C-1.33 7.35 -1.66 5.7 -2 4 C-1.34 4 -0.68 4 0 4 C0 2.68 0 1.36 0 0 Z " fill="#929292" transform="translate(473,337)"/>
<path d="M0 0 C5.96938776 1.19387755 5.96938776 1.19387755 9 4 C9 4.66 9 5.32 9 6 C8.34 6 7.68 6 7 6 C6.67 6.99 6.34 7.98 6 9 C4.02 6.03 2.04 3.06 0 0 Z " fill="#9B9B9B" transform="translate(362,508)"/>
<path d="M0 0 C-3.67832017 4.52615993 -7.41086363 8.39424999 -12 12 C-10.44499019 8.18315774 -7.96404505 5.80804268 -5 3 C-6.65 3 -8.3 3 -10 3 C-6.88378718 -0.11621282 -4.21175599 -0.11383124 0 0 Z " fill="#BDBDBD" transform="translate(217,443)"/>
<path d="M0 0 C0.33 0 0.66 0 1 0 C1.33 3.3 1.66 6.6 2 10 C2.33 10 2.66 10 3 10 C2.48041715 14.37934119 1.94324258 18.68803391 1 23 C0.67 23 0.34 23 0 23 C0 15.41 0 7.82 0 0 Z " fill="#464646" transform="translate(246,382)"/>
<path d="M0 0 C0.33 0 0.66 0 1 0 C1 5.94 1 11.88 1 18 C-0.94973385 14.10053229 -2.14678349 11.29966317 -2.1875 7 C-2.20167969 6.319375 -2.21585938 5.63875 -2.23046875 4.9375 C-2 3 -2 3 0 0 Z " fill="#767676" transform="translate(236,373)"/>
<path d="M0 0 C3.03852705 1.40976705 5.5939595 3.08870228 8.25 5.125 C8.95640625 5.66382813 9.6628125 6.20265625 10.390625 6.7578125 C10.92171875 7.16773438 11.4528125 7.57765625 12 8 C11.01 8.495 11.01 8.495 10 9 C9.67 9.66 9.34 10.32 9 11 C7.49703315 9.35687553 5.99769719 7.71042916 4.5 6.0625 C3.6646875 5.14597656 2.829375 4.22945312 1.96875 3.28515625 C0 1 0 1 0 0 Z " fill="#747474" transform="translate(350,515)"/>
<path d="M0 0 C0.66 0.33 1.32 0.66 2 1 C0.02 4.96 -1.96 8.92 -4 13 C-4.66 13 -5.32 13 -6 13 C-5.835 12.236875 -5.67 11.47375 -5.5 10.6875 C-4.90854604 7.96403764 -4.90854604 7.96403764 -5 5 C-2.5 2.3125 -2.5 2.3125 0 0 Z " fill="#707070" transform="translate(230,520)"/>
<path d="M0 0 C0.66 0.33 1.32 0.66 2 1 C0.38150935 2.83946539 -1.24418831 4.67151417 -2.875 6.5 C-3.33519531 7.02464844 -3.79539063 7.54929687 -4.26953125 8.08984375 C-5.47172076 9.43141755 -6.73245946 10.71999185 -8 12 C-8.66 12 -9.32 12 -10 12 C-8.52278578 8.54798361 -6.56205999 6.35038064 -3.875 3.75 C-3.15054688 3.04359375 -2.42609375 2.3371875 -1.6796875 1.609375 C-1.12539062 1.07828125 -0.57109375 0.5471875 0 0 Z " fill="#B3B3B3" transform="translate(195,447)"/>
<path d="M0 0 C0.66 0.33 1.32 0.66 2 1 C1.27683594 1.61488281 1.27683594 1.61488281 0.5390625 2.2421875 C-0.09257812 2.78101563 -0.72421875 3.31984375 -1.375 3.875 C-2.00148438 4.40867187 -2.62796875 4.94234375 -3.2734375 5.4921875 C-4.55836651 6.61432007 -5.79371975 7.79371975 -7 9 C-8.98356483 9.71408334 -10.98315437 10.38617742 -13 11 C-9.57933564 5.94336573 -5.08997609 3.16492103 0 0 Z " fill="#868686" transform="translate(374,337)"/>
<path d="M0 0 C4.14325595 4.89657521 5.30217221 9.65438369 5 16 C3.35 15.01 1.7 14.02 0 13 C0.66 12.67 1.32 12.34 2 12 C1.44687265 7.97007218 0.8441938 3.97977076 0 0 Z " fill="#8A8A8A" transform="translate(369,517)"/>
<path d="M0 0 C2.375 0.25 2.375 0.25 5 1 C6.375 2.9375 6.375 2.9375 7 5 C6.67 5.66 6.34 6.32 6 7 C3.53199953 5.84826645 1.95216435 4.95216435 0 3 C0 2.01 0 1.02 0 0 Z " fill="#A8A8A8" transform="translate(360,524)"/>
<path d="M0 0 C-0.29296875 1.98567708 -0.5859375 3.97135417 -0.87890625 5.95703125 C-1.13904799 8.2025342 -1.13904799 8.2025342 0 11 C-1.65 11 -3.3 11 -5 11 C-4.71890887 9.35232753 -4.42481474 7.70686855 -4.125 6.0625 C-3.96257812 5.14597656 -3.80015625 4.22945313 -3.6328125 3.28515625 C-3.42398437 2.53105469 -3.21515625 1.77695312 -3 1 C-1 0 -1 0 0 0 Z " fill="#D1D1D1" transform="translate(264,350)"/>
<path d="M0 0 C0.93677207 3.00575788 1.03997676 5.06377778 0.3125 8.125 C0.16425781 8.80820312 0.01601562 9.49140625 -0.13671875 10.1953125 C-1.27724844 12.57958724 -2.59538929 13.04990942 -5 14 C-4.54636829 12.41531323 -4.08688548 10.83230076 -3.625 9.25 C-3.36976563 8.36828125 -3.11453125 7.4865625 -2.8515625 6.578125 C-2.0790066 4.23919428 -1.16374324 2.16557438 0 0 Z " fill="#F2F2F2" transform="translate(236,342)"/>
<path d="M0 0 C1.66666667 0 3.33333333 0 5 0 C3.4169423 4.2742558 0.49431596 6.26531794 -3 9 C-2.30058404 5.85262818 -1.23921302 2.97411124 0 0 Z " fill="#D9D9D9" transform="translate(153,437)"/>
<path d="M0 0 C0.33 0.66 0.66 1.32 1 2 C-0.41538717 2.33872513 -1.83237963 2.67074624 -3.25 3 C-4.03890625 3.185625 -4.8278125 3.37125 -5.640625 3.5625 C-8 4 -8 4 -12 4 C-12 3.34 -12 2.68 -12 2 C-10.37787941 1.47026689 -8.75218416 0.95146893 -7.125 0.4375 C-6.22007812 0.14746094 -5.31515625 -0.14257812 -4.3828125 -0.44140625 C-2 -1 -2 -1 0 0 Z " fill="#EFEFEF" transform="translate(283,90)"/>
<path d="M0 0 C-1.38188453 3.21043882 -2.92421903 5.04936365 -5.625 7.25 C-6.57246094 8.03117187 -6.57246094 8.03117187 -7.5390625 8.828125 C-8.02117187 9.21484375 -8.50328125 9.6015625 -9 10 C-9 7 -9 7 -7.5390625 5.17578125 C-6.90742188 4.56089844 -6.27578125 3.94601562 -5.625 3.3125 C-4.68527344 2.37857422 -4.68527344 2.37857422 -3.7265625 1.42578125 C-2 0 -2 0 0 0 Z " fill="#8D8D8D" transform="translate(164,427)"/>
<path d="M0 0 C0.88935377 3.303314 1.46274105 6.62294375 2 10 C0.68 10.99 -0.64 11.98 -2 13 C-1.979375 11.906875 -1.95875 10.81375 -1.9375 9.6875 C-1.81455548 6.05615809 -1.81455548 6.05615809 -3 3 C-2.01 3 -1.02 3 0 3 C0 2.01 0 1.02 0 0 Z " fill="#717171" transform="translate(265,354)"/>
<path d="M0 0 C1.15957207 3.47871621 0.77456651 4.34219645 -0.4375 7.6875 C-0.86869141 8.89986328 -0.86869141 8.89986328 -1.30859375 10.13671875 C-1.53675781 10.75160156 -1.76492187 11.36648438 -2 12 C-1.34 12.33 -0.68 12.66 0 13 C-1.98 13.99 -1.98 13.99 -4 15 C-3.50341703 9.33895411 -2.45489316 5.12325529 0 0 Z " fill="#AAAAAA" transform="translate(180,466)"/>
<path d="M0 0 C0.66 0.33 1.32 0.66 2 1 C0.58480285 3.0343459 -0.54982123 3.90410393 -2.98046875 4.421875 C-4.98176954 4.66273952 -6.9909944 4.83532741 -9 5 C-8.67 3.68 -8.34 2.36 -8 1 C-5.36 1.33 -2.72 1.66 0 2 C0 1.34 0 0.68 0 0 Z " fill="#1E1E1E" transform="translate(303,177)"/>
<path d="M0 0 C2.33294775 -0.04241723 4.66702567 -0.04092937 7 0 C7.33 0.33 7.66 0.66 8 1 C10.32817964 1.36760731 12.6618385 1.70241581 15 2 C11.5647952 4.29013653 10.014669 4.17842973 6 4 C5.67 3.01 5.34 2.02 5 1 C3.35 1 1.7 1 0 1 C0 0.67 0 0.34 0 0 Z " fill="#8D8D8D" transform="translate(320,141)"/>
<path d="M0 0 C1.32 0.99 2.64 1.98 4 3 C4.66 2.67 5.32 2.34 6 2 C6.99 4.97 7.98 7.94 9 11 C7.33333333 9.33333333 5.66666667 7.66666667 4 6 C3.236875 5.278125 2.47375 4.55625 1.6875 3.8125 C0 2 0 2 0 0 Z " fill="#575757" transform="translate(401,512)"/>
<path d="M0 0 C-0.99 0.33 -1.98 0.66 -3 1 C-3.73323796 3.01508358 -3.73323796 3.01508358 -4 5 C-5.9375 4.6875 -5.9375 4.6875 -8 4 C-8.33 3.01 -8.66 2.02 -9 1 C-6.04335481 -0.4783226 -3.25770263 -0.06032783 0 0 Z " fill="#080808" transform="translate(325,142)"/>
<path d="M0 0 C1.65 1.32 3.3 2.64 5 4 C4.67 4.66 4.34 5.32 4 6 C0.37 4.68 -3.26 3.36 -7 2 C-3 1 -3 1 0 2 C0 1.34 0 0.68 0 0 Z " fill="#CBCBCB" transform="translate(338,97)"/>
<path d="M0 0 C-2.55068845 2.35448165 -3.71017358 2.98327924 -7.25 3.1875 C-8.1575 3.125625 -9.065 3.06375 -10 3 C-10.33 2.01 -10.66 1.02 -11 0 C-3.57142857 -1.28571429 -3.57142857 -1.28571429 0 0 Z " fill="#616161" transform="translate(311,191)"/>
<path d="M0 0 C1 2 1 2 0.1875 4.875 C-0.75524181 7.3558995 -1.7442206 9.66783825 -3 12 C-4.1484375 10.265625 -4.1484375 10.265625 -5 8 C-4.1015625 5.859375 -4.1015625 5.859375 -2.625 3.75 C-2.14289063 3.04359375 -1.66078125 2.3371875 -1.1640625 1.609375 C-0.77992188 1.07828125 -0.39578125 0.5471875 0 0 Z " fill="#737373" transform="translate(276,367)"/>
<path d="M0 0 C0.66 0.33 1.32 0.66 2 1 C-0.31 3.97 -2.62 6.94 -5 10 C-5.66 9.34 -6.32 8.68 -7 8 C-4.69 5.36 -2.38 2.72 0 0 Z " fill="#B3B3B3" transform="translate(393,353)"/>
<path d="M0 0 C-0.99 0.33 -1.98 0.66 -3 1 C-3 1.66 -3 2.32 -3 3 C-4.8125 4.0625 -4.8125 4.0625 -7 5 C-7.99 4.67 -8.98 4.34 -10 4 C-8.68 3.34 -7.36 2.68 -6 2 C-6.33 1.34 -6.66 0.68 -7 0 C-3.86650268 -1.04449911 -3.01031744 -0.93423645 0 0 Z " fill="#B5B5B5" transform="translate(220,498)"/>
<path d="M0 0 C1.485 0.99 1.485 0.99 3 2 C2.01 4.64 1.02 7.28 0 10 C-0.33 10 -0.66 10 -1 10 C-1.02689216 8.52093108 -1.04634621 7.04172517 -1.0625 5.5625 C-1.07410156 4.73878906 -1.08570313 3.91507812 -1.09765625 3.06640625 C-1 1 -1 1 0 0 Z " fill="#6E6E6E" transform="translate(141,459)"/>
<path d="M0 0 C0.66 0.33 1.32 0.66 2 1 C0.88121617 2.17262904 -0.24523051 3.33795138 -1.375 4.5 C-2.00148437 5.1496875 -2.62796875 5.799375 -3.2734375 6.46875 C-5 8 -5 8 -7 8 C-5.50902342 4.2047869 -3.24299151 2.38957269 0 0 Z " fill="#DCDCDC" transform="translate(146,411)"/>
<path d="M0 0 C0.66 0 1.32 0 2 0 C0.62845496 2.95409701 -0.98863724 5.44008376 -3 8 C-3.99 7.67 -4.98 7.34 -6 7 C-5.04882866 5.8274869 -4.08882991 4.66212985 -3.125 3.5 C-2.59132813 2.8503125 -2.05765625 2.200625 -1.5078125 1.53125 C-0.76144531 0.77328125 -0.76144531 0.77328125 0 0 Z " fill="#BEBEBE" transform="translate(313,355)"/>
<path d="M0 0 C0.33 0.66 0.66 1.32 1 2 C0.22265625 4.1640625 0.22265625 4.1640625 -0.9375 6.625 C-1.31777344 7.44226563 -1.69804687 8.25953125 -2.08984375 9.1015625 C-2.39019531 9.72804688 -2.69054687 10.35453125 -3 11 C-3.66 9.68 -4.32 8.36 -5 7 C-3.35 4.69 -1.7 2.38 0 0 Z " fill="#909090" transform="translate(243,328)"/>
<path d="M0 0 C3.5786304 1.65167557 6.74820188 3.78286492 10 6 C9.34 6.66 8.68 7.32 8 8 C6.66372225 6.85760183 5.33104612 5.71098945 4 4.5625 C3.2575 3.92441406 2.515 3.28632812 1.75 2.62890625 C1.1725 2.09136719 0.595 1.55382812 0 1 C0 0.67 0 0.34 0 0 Z " fill="#505050" transform="translate(314,527)"/>
<path d="M0 0 C0.66 0.33 1.32 0.66 2 1 C-3.14285714 6.57142857 -3.14285714 6.57142857 -7 7 C-4.78071806 4.09197539 -3.07030857 2.04687238 0 0 Z " fill="#A6A6A6" transform="translate(409,422)"/>
<path d="M0 0 C0.33 0 0.66 0 1 0 C1.6875 2.8125 1.6875 2.8125 2 6 C0.5625 7.875 0.5625 7.875 -1 9 C-2 6 -2 6 -2 3 C-1.34 2.01 -0.68 1.02 0 0 Z " fill="#E2E2E2" transform="translate(282,364)"/>
<path d="M0 0 C1 3 1 3 0.25 5.5625 C-1 8 -1 8 -4 10 C-4.1875 7.6875 -4.1875 7.6875 -4 5 C-2.5625 3.3125 -2.5625 3.3125 -1 2 C-0.67 1.34 -0.34 0.68 0 0 Z " fill="#E0E0E0" transform="translate(249,356)"/>
<path d="M0 0 C0.33 0 0.66 0 1 0 C1 2.31 1 4.62 1 7 C-0.66666667 7 -2.33333333 7 -4 7 C-2.92598892 4.08482708 -2.22189824 2.22189824 0 0 Z " fill="#DCDCDC" transform="translate(242,297)"/>
<path d="M0 0 C0.66 0.33 1.32 0.66 2 1 C2 1.33 2 1.66 2 2 C4.97 2 7.94 2 11 2 C11.33 2.66 11.66 3.32 12 4 C8.04 4 4.08 4 0 4 C0 2.68 0 1.36 0 0 Z " fill="#9F9F9F" transform="translate(306,144)"/>
<path d="M0 0 C-0.33 0.66 -0.66 1.32 -1 2 C-3.28515625 2.4140625 -3.28515625 2.4140625 -6.0625 2.625 C-6.98160156 2.69976562 -7.90070313 2.77453125 -8.84765625 2.8515625 C-9.55792969 2.90054688 -10.26820313 2.94953125 -11 3 C-7.65817252 -1.0165182 -4.96805907 -0.24433077 0 0 Z " fill="#F7F7F7" transform="translate(278,138)"/>
<path d="M0 0 C0.66 0.33 1.32 0.66 2 1 C2.40729228 3.32156597 2.74438677 5.6568787 3 8 C2.01 8 1.02 8 0 8 C-1.09658936 4.71023192 -0.79953138 3.28696233 0 0 Z " fill="#C9C9C9" transform="translate(218,543)"/>
<path d="M0 0 C6.75 1.625 6.75 1.625 9 5 C8.01 5.495 8.01 5.495 7 6 C5.83054208 5.19152271 4.66449539 4.37810888 3.5 3.5625 C2.8503125 3.11003906 2.200625 2.65757812 1.53125 2.19140625 C1.0259375 1.79824219 0.520625 1.40507812 0 1 C0 0.67 0 0.34 0 0 Z " fill="#A7A7A7" transform="translate(288,463)"/>
<path d="M0 0 C1.98 0.66 3.96 1.32 6 2 C2.55549263 4.29633824 0.06187717 4.54016485 -4 5 C-3.34 4.360625 -2.68 3.72125 -2 3.0625 C0.11602431 1.35917681 0.11602431 1.35917681 0 0 Z " fill="#5F5F5F" transform="translate(231,445)"/>
<path d="M0 0 C0.66 0.33 1.32 0.66 2 1 C-4.5 5 -4.5 5 -9 5 C-8.67 4.01 -8.34 3.02 -8 2 C-7.05125 1.855625 -6.1025 1.71125 -5.125 1.5625 C-2.1065506 1.17064601 -2.1065506 1.17064601 0 0 Z " fill="#B9B9B9" transform="translate(282,408)"/>
<path d="M0 0 C0.99 0 1.98 0 3 0 C2.39009109 3.55780196 1.4216319 6.6828589 0 10 C-0.33 10 -0.66 10 -1 10 C-0.67 6.7 -0.34 3.4 0 0 Z " fill="#656565" transform="translate(257,400)"/>
<path d="M0 0 C1.32 0.66 2.64 1.32 4 2 C3.67 3.32 3.34 4.64 3 6 C0.03 5.505 0.03 5.505 -3 5 C-2.01 4.34 -1.02 3.68 0 3 C0 2.01 0 1.02 0 0 Z " fill="#B1B1B1" transform="translate(437,305)"/>
<path d="M0 0 C0.33 0 0.66 0 1 0 C1.33 2.97 1.66 5.94 2 9 C-1.875 6.25 -1.875 6.25 -3 4 C-1 1 -1 1 0 0 Z " fill="#B5B5B5" transform="translate(373,136)"/>
<path d="M0 0 C2.97 0.33 5.94 0.66 9 1 C7.515 2.485 7.515 2.485 6 4 C1.125 2.25 1.125 2.25 0 0 Z " fill="#BDBDBD" transform="translate(340,486)"/>
<path d="M0 0 C0.66 0.33 1.32 0.66 2 1 C1.34 1.66 0.68 2.32 0 3 C1.32 3.66 2.64 4.32 4 5 C1.69 5.33 -0.62 5.66 -3 6 C-2.42655063 3.13275314 -2.1385485 2.1385485 0 0 Z " fill="#6E6E6E" transform="translate(355,318)"/>
<path d="M0 0 C0.66 0 1.32 0 2 0 C3.38938077 1.96147874 4.7260411 3.96166576 6 6 C5.67 6.66 5.34 7.32 5 8 C2.5 6.25 2.5 6.25 0 4 C0 2.68 0 1.36 0 0 Z " fill="#636363" transform="translate(281,136)"/>
<path d="M0 0 C0 0.99 0 1.98 0 3 C-0.66 3 -1.32 3 -2 3 C-2.33 3.66 -2.66 4.32 -3 5 C-4.32 4.34 -5.64 3.68 -7 3 C-3.375 0 -3.375 0 0 0 Z " fill="#A3A3A3" transform="translate(263,99)"/>
<path d="M0 0 C0 3.90838866 -1.50567876 5.11594107 -4 8 C-4.33 7.01 -4.66 6.02 -5 5 C-3.35 3.35 -1.7 1.7 0 0 Z " fill="#F5F5F5" transform="translate(260,88)"/>
<path d="M0 0 C0.66 0.99 1.32 1.98 2 3 C-0.31 4.32 -2.62 5.64 -5 7 C-3.70700306 4.11562221 -2.34058637 2.12780579 0 0 Z " fill="#8D8D8D" transform="translate(238,543)"/>
<path d="M0 0 C0.66 0.33 1.32 0.66 2 1 C2 1.99 2 2.98 2 4 C-0.375 5.75 -0.375 5.75 -3 7 C-3.66 6.67 -4.32 6.34 -5 6 C-3.35 4.02 -1.7 2.04 0 0 Z " fill="#4F4F4F" transform="translate(403,439)"/>
<path d="M0 0 C2.09749995 2.35968744 2.96905704 3.54616994 3.1875 6.75 C3.125625 7.4925 3.06375 8.235 3 9 C1.68 7.68 0.36 6.36 -1 5 C-0.34 5 0.32 5 1 5 C0.67 3.35 0.34 1.7 0 0 Z " fill="#747474" transform="translate(471,341)"/>
</svg>
